<?xml version="1.0" encoding="UTF-8"?>
<svg width="150px" height="163px" viewBox="0 0 150 163" version="1.1" xmlns="http://www.w3.org/2000/svg" xmlns:xlink="http://www.w3.org/1999/xlink">
    <!-- Generator: Sketch 61 (89581) - https://sketch.com -->
    <title>section_1_img_3</title>
    <desc>Created with Sketch.</desc>
    <g id="Phase-one-New-illustrations" stroke="none" stroke-width="1" fill="none" fill-rule="evenodd">
        <g id="WEB-4640---Var-A:-not-eligible-to-start-a-trial" transform="translate(-786.000000, -1045.000000)">
            <g id="section_1_img_3" transform="translate(787.000000, 1032.000000)">
                <path d="M86.6708229,93 L65.3291771,93 C65.1645885,93 65,92.75 65,92.5 C65,92.25 65.1645885,92 65.3291771,92 L86.6708229,92 C86.8354115,92 87,92.25 87,92.5 C87,92.75 86.8902743,93 86.6708229,93" id="Path" fill="#4267C5" fill-rule="nonzero"></path>
                <g id="Group">
                    <path d="M141.898559,18.3333333 C137.168607,25.2717949 133.452216,31.9846154 129.848443,29.3897436 C126.244671,26.7384615 123.767077,28.9384615 123.767077,28.9384615 L21.0595481,140.405128 L13.4015306,153.774359 C17.0053035,156.820513 21.3974018,160.6 24.5507031,163.251282 L32.884428,158.569231 L41.7812424,148.923077 L39.6978112,147.005128 C39.6978112,147.005128 130.355224,48.4 133.621143,44.225641 C136.887063,40.0512821 145.783877,36.5538462 145.783877,36.5538462 L139.308347,31.4205128 C139.308347,31.4205128 141.504397,27.3589744 147.416837,21.8307692 C151.302154,18.1076923 145.502332,13.0871795 141.898559,18.3333333 Z" id="Path" fill="#98CDFB" fill-rule="nonzero"></path>
                    <ellipse id="Oval" fill="#CDEAA1" fill-rule="nonzero" transform="translate(61.766455, 117.984714) rotate(-48.076672) translate(-61.766455, -117.984714) " cx="61.7664551" cy="117.984714" rx="33.8172211" ry="4.11374925"></ellipse>
                    <ellipse id="Oval" fill="#ABDB61" fill-rule="nonzero" transform="translate(62.477879, 118.785311) rotate(-48.076672) translate(-62.477879, -118.785311) " cx="62.4778793" cy="118.785311" rx="33.8172211" ry="3.04311673"></ellipse>
                    <polygon id="Path" fill="#CDEAA1" fill-rule="nonzero" points="33.7853712 159.866667 15.8228155 144.466667 23.7623778 135.666667 41.7249335 151.066667"></polygon>
                    <polygon id="Path" fill="#ABDB61" fill-rule="nonzero" points="33.7853712 159.866667 24.8322479 152.194872 32.7155012 143.338462 41.7249335 151.066667"></polygon>
                    <polygon id="Path" fill="#CDEAA1" fill-rule="nonzero" points="6.08136682 166.128205 11.712262 170.697436 1.4077238 175.548718"></polygon>
                    <g>
                        <g transform="translate(0.000000, 13.538462)" id="Path" stroke="#5067BF" stroke-linejoin="round" stroke-width="1.5">
                            <path d="M42.7948036,126.923077 C40.8802992,129.348718 38.9657948,131.774359 37.0512905,134.2"></path>
                            <path d="M93.1350067,70.2871795 L84.0692655,79.7641026 C83.449867,80.3846154 82.8304685,81.0615385 82.267379,81.6820513"></path>
                            <polyline points="127.652394 32.3794872 128.609647 33.225641 102.313366 60.6974359"></polyline>
                            <path d="M22.8051256,121.620513 C39.1347217,105.712821 54.6759925,88.9589744 69.4289379,71.5282051 L113.349921,19.4615385 L124.048621,29.1076923"></path>
                            <polyline points="124.161239 28.9384615 113.237303 19.1230769 116.728458 15.2871795 126.638833 24.2"></polyline>
                            <polyline points="131.762948 28.825641 132.382346 29.3897436 128.9475 33.225641 127.87763 32.2666667"></polyline>
                            <path d="M127.765012,12.6923077 L137.56277,1.80512821 C139.083112,0.112820513 141.617014,-4.99600361e-16 143.306283,1.52307692 L143.306283,1.52307692 C144.995552,3.04615385 145.10817,5.58461538 143.587828,7.27692308 L135.479339,16.3025641"></path>
                            <path d="M133.846379,27.2461538 C133.452216,27.6974359 132.551273,28.7692308 132.269728,29.1076923"></path>
                            <path d="M117.010002,15.4 C120.557466,11.4512821 126.469906,10.8871795 130.693078,13.9333333"></path>
                            <polyline points="30.6883789 142.379487 0.450471617 160.825641 15.4286529 128.671795"></polyline>
                            <line x1="12.6132053" y1="134.764103" x2="24.9448658" y2="145.876923"></line>
                            <line x1="11.2617904" y1="137.641026" x2="22.298345" y2="147.512821"></line>
                            <line x1="5.23673254" y1="150.502564" x2="10.1356114" y2="154.902564"></line>
                        </g>
                        <path d="M142.630576,35.9333333 L138.013242,31.9282051 L131.199858,25.6666667 C127.708703,37.4564103 121.627336,48.2871795 113.406229,57.425641 L102.482293,69.6666667 C100.173626,72.2051282 97.1892513,73.9538462 93.9233321,74.9128205 C92.9660799,75.1948718 92.0651366,75.8153846 91.4457382,76.7179487 C90.1506323,78.5230769 90.2632502,81.0615385 91.7272829,82.6974359 C93.6980963,84.8974359 97.0203244,84.8410256 98.8785198,82.6974359 C99.4979183,81.9641026 99.892081,81.1179487 100.061008,80.2153846 C100.624097,76.8307692 102.200748,73.6717949 104.509415,71.0769231 L116.446913,57.7076923 C124.330166,49.0769231 131.762948,40.2205128 142.630576,35.9333333 Z" id="Path" stroke="#5067BF" stroke-width="1.5" stroke-linejoin="round"></path>
                        <ellipse id="Oval" stroke="#5067BF" stroke-width="1.49992021" stroke-linejoin="round" transform="translate(59.467749, 117.222645) rotate(-48.076672) translate(-59.467749, -117.222645) " cx="59.4677491" cy="117.222645" rx="34.4935656" ry="5.29710222"></ellipse>
                        <g transform="translate(138.520022, 0.000000)"></g>
                        <polygon id="Rectangle" stroke="#5067BF" stroke-width="1.49992021" stroke-linejoin="round" transform="translate(26.465461, 145.270344) rotate(41.923328) translate(-26.465461, -145.270344) " points="15.3033956 140.18779 37.6184617 140.207731 37.6275261 150.352898 15.31246 150.332956"></polygon>
                    </g>
                </g>
            </g>
        </g>
    </g>
</svg>