<?xml version="1.0" encoding="UTF-8"?>
<svg width="206px" height="176px" viewBox="0 0 206 176" version="1.1" xmlns="http://www.w3.org/2000/svg" xmlns:xlink="http://www.w3.org/1999/xlink">
    <!-- Generator: Sketch 61 (89581) - https://sketch.com -->
    <title>section_1_img_2</title>
    <desc>Created with Sketch.</desc>
    <g id="Phase-one-New-illustrations" stroke="none" stroke-width="1" fill="none" fill-rule="evenodd">
        <g id="WEB-4640---Var-A:-not-eligible-to-start-a-trial" transform="translate(-442.000000, -1032.000000)" fill-rule="nonzero">
            <g id="section_1_img_2" transform="translate(442.000000, 1032.000000)">
                <path d="M128.419106,17.9221684 C131.245446,30.2814189 123.484986,42.6406695 111.077832,45.4191056 C98.7185811,48.2454459 86.3593305,40.4849862 83.5808944,28.0778316 C80.7545541,15.7185811 88.5150138,3.40723461 100.922168,0.580894371 C113.281419,-2.24544587 125.592765,5.51501377 128.419106,17.9221684" id="Path" fill="#CDEAA1"></path>
                <path d="M102.975566,55 C90.6606395,55 79.5185634,46.4941911 76.6841757,33.9798975 C75.0715068,26.9406074 76.3420944,19.7057814 80.1538573,13.5952865 C84.0144889,7.48479154 89.9764769,3.23188708 97.0135776,1.66760038 C111.527598,-1.60762489 125.992749,7.48479154 129.315824,22.0033275 C130.928493,29.0426176 129.657906,36.2774436 125.846143,42.3879385 C121.985511,48.4984334 116.023523,52.7513379 108.986422,54.3156246 C106.982803,54.8044642 104.979185,55 102.975566,55 M103.024434,2.49862769 C101.118553,2.49862769 99.2126715,2.69416353 97.3067901,3.13411916 C90.7095082,4.6495219 85.0407327,8.65800657 81.4244449,14.4263138 C77.808157,20.194621 76.6353069,27.0383753 78.1502383,33.6865937 C81.2778386,47.4229863 94.9610899,56.0265631 108.69321,52.9468737 C115.339361,51.431471 121.008136,47.4229863 124.624424,41.6546791 C128.240712,35.8863719 129.413562,29.0426176 127.89863,22.3943991 C126.383699,15.7461807 122.376461,10.0756414 116.609948,6.4582284 C112.456104,3.81849459 107.813572,2.49862769 103.024434,2.49862769" id="Shape" fill="#4267C5"></path>
                <path d="M103.975655,51 C93.5074602,51 83.9643613,43.7461084 81.5785866,33.0843483 C78.7546084,20.7186539 86.5448932,8.40164341 98.9119703,5.57798091 C104.900752,4.2148335 111.035601,5.2858779 116.245354,8.54769492 C121.455107,11.8095119 125.058114,16.9213147 126.421413,22.9094266 C129.245392,35.2751209 121.455107,47.5921315 109.08803,50.415794 C107.383905,50.8052647 105.67978,51 103.975655,51 M103.975655,5.57798091 C102.32022,5.57798091 100.664784,5.77271626 99.0093488,6.11350311 C86.9830967,8.88848177 79.387569,20.9133893 82.1141687,32.9869806 C84.8407684,45.060572 96.8670205,52.6552504 108.941962,49.8802718 C114.784675,48.5658082 119.750982,45.0118882 122.964475,39.9487692 C126.177967,34.8856502 127.200442,28.8488546 125.885831,23.0554781 C123.500057,12.685821 114.249093,5.57798091 103.975655,5.57798091" id="Shape" fill="#4267C5"></path>
                <path d="M110.056668,28.8028027 L103.423962,29.9761631 C102.799142,30.0897141 102.174322,29.7869114 102.030133,29.294857 C101.885944,28.8028027 102.270448,28.3107483 102.943332,28.1971973 L109.576038,27.0238369 C110.200858,26.9102859 110.825678,27.2130886 110.969867,27.705143 C111.114056,28.159347 110.729552,28.6892517 110.056668,28.8028027" id="Path" fill="#4267C5"></path>
                <path d="M102.802803,21.9294644 L103.976163,28.5735867 C104.089714,29.1994823 103.786911,29.8253779 103.294857,29.9698153 C102.802803,30.1142527 102.310748,29.7290862 102.197197,29.0550448 L101.023837,22.4109226 C100.910286,21.785027 101.213089,21.1591314 101.705143,21.014694 C102.197197,20.9184024 102.689252,21.3035689 102.802803,21.9294644" id="Path" fill="#4267C5"></path>
                <path d="M100.275813,12 C99.9247781,12 99.6238907,11.7984982 99.5235949,11.5163956 L99.0221158,9.74317952 C98.92182,9.42077659 99.1725595,9.09837367 99.5737428,9.01777293 C99.974926,8.9371722 100.376109,9.13867403 100.476405,9.46107696 L100.977884,11.2342931 C101.07818,11.556696 100.82744,11.8790989 100.426257,11.9596996 C100.426257,12 100.325961,12 100.275813,12" id="Path" fill="#4267C5"></path>
                <path d="M107.275813,48 C106.924778,48 106.623891,47.7984982 106.523595,47.5163956 L106.022116,45.7431795 C105.92182,45.4207766 106.17256,45.0983737 106.573743,45.0177729 C106.974926,44.9371722 107.376109,45.138674 107.476405,45.461077 L107.977884,47.2342931 C108.07818,47.556696 107.82744,47.8790989 107.426257,47.9596996 C107.376109,48 107.325961,48 107.275813,48" id="Path" fill="#4267C5"></path>
                <path d="M120.626987,26 C120.34275,26 120.099118,25.7527263 120.017907,25.406543 C119.936697,25.0109051 120.139723,24.6152671 120.464565,24.5163576 L122.251198,24.0218101 C122.57604,23.9229006 122.900882,24.1701744 122.982093,24.5658123 C123.063303,24.9614503 122.860277,25.3570883 122.535435,25.4559978 L120.748802,25.9505453 C120.708197,25.9505453 120.667592,26 120.626987,26" id="Path" fill="#4267C5"></path>
                <path d="M84.6269866,33 C84.3427496,33 84.099118,32.7527263 84.0179074,32.406543 C83.9366968,32.0109051 84.1397232,31.6152671 84.4645654,31.5163576 L86.2511976,31.0218101 C86.5760398,30.9229006 86.900882,31.1701744 86.9820926,31.5658123 C87.0633032,31.9614503 86.8602768,32.3570883 86.5354346,32.4559978 L84.7488024,32.9505453 C84.7081971,32.9505453 84.6675918,33 84.6269866,33" id="Path" fill="#4267C5"></path>
                <path d="M112.834287,14 C112.667859,14 112.50143,13.9559074 112.390478,13.9118149 C112.002145,13.7354446 111.891193,13.2945189 112.113098,12.9858709 L113.444524,11.3103531 C113.666428,11.0017051 114.221189,10.91352 114.609522,11.0898903 C114.997855,11.2662606 115.108807,11.7071863 114.886902,12.0158343 L113.555476,13.691352 C113.389048,13.9118149 113.111667,14 112.834287,14" id="Path" fill="#4267C5"></path>
                <path d="M93.8342868,46 C93.6678585,46 93.5014302,45.9559074 93.3904781,45.9118149 C93.0021454,45.7354446 92.8911932,45.2945189 93.1130976,44.9858709 L94.4445239,43.3103531 C94.6664283,43.0017051 95.2211893,42.91352 95.6095219,43.0898903 C95.9978546,43.2662606 96.1088068,43.7071863 95.8869024,44.0158343 L94.5554761,45.691352 C94.3890478,45.9118149 94.1116673,46 93.8342868,46" id="Path" fill="#4267C5"></path>
                <path d="M120.337283,40 C120.20508,40 120.072878,39.9444842 119.984743,39.8889684 L118.310177,38.5565893 C118.001704,38.3345261 117.913569,37.7793681 118.089839,37.3907575 C118.266109,37.0021469 118.706785,36.8911153 119.015257,37.1131785 L120.689823,38.4455577 C120.998296,38.6676208 121.086431,39.2227788 120.910161,39.6113894 C120.777958,39.8334526 120.557621,40 120.337283,40" id="Path" fill="#4267C5"></path>
                <path d="M88.337283,21 C88.2050804,21 88.0728778,20.9444842 87.9847428,20.8889684 L86.3101768,19.5565893 C86.0017042,19.3345261 85.9135691,18.7793681 86.0898392,18.3907575 C86.2661093,18.0021469 86.7067846,17.8911153 87.0152572,18.1131785 L88.6898232,19.4455577 C88.9982958,19.6676208 89.0864309,20.2227788 88.9101608,20.6113894 C88.7779582,20.8334526 88.5576206,21 88.337283,21" id="Path" fill="#4267C5"></path>
                <path d="M77,77 C77,89.6979167 66.6979167,100 54,100 C41.3020833,100 31,89.6979167 31,77 C31,64.3020833 41.3020833,54 54,54 C66.6979167,54 77,64.3020833 77,77" id="Path" fill="#CDEAA1"></path>
                <path d="M50,54.240113 C52.7909605,63.940678 61.8493409,71 72.6214689,71 C73.7966102,71 74.9227872,70.9039548 76,70.759887 C73.2090395,61.059322 64.1506591,54 53.3785311,54 C52.252354,54 51.126177,54.0960452 50,54.240113" id="Path" fill="#ABDB61"></path>
                <path d="M48.9755475,108 C44.6719002,108 40.4171581,106.973448 36.5047515,104.920343 C30.0981858,101.59627 25.4032979,95.9746742 23.2514743,89.0821093 C21.0996507,82.1895445 21.7354167,74.9059122 25.0609623,68.5021818 C31.9565789,55.3036534 48.2908763,50.1708924 61.4952485,57.0634572 C67.9018142,60.387531 72.5967021,66.0091264 74.7485257,72.9016912 C76.9003493,79.794256 76.2645833,87.0778884 72.9390377,93.4816188 C69.6134921,99.8853492 63.9894077,104.578159 57.0937911,106.729031 C54.4040116,107.608932 51.665327,108 48.9755475,108 M49.0244525,55.4503037 C39.8302971,55.4503037 30.8806671,60.4364144 26.3324945,69.1376665 C23.2025692,75.1992128 22.5668031,82.0917776 24.6208166,88.593275 C26.67483,95.0947723 31.1251925,100.423067 37.1894227,103.551607 C43.2536529,106.729031 50.1492694,107.315632 56.6536453,105.262527 C63.1580213,103.209423 68.4886752,98.7610301 71.6186005,92.6994838 C78.1229764,80.234207 73.2813732,64.7870405 60.8105773,58.2855431 C57.044886,56.379089 52.9857642,55.4503037 49.0244525,55.4503037" id="Shape" fill="#4267C5"></path>
                <path d="M48.9756554,104 C45.4213486,104 41.7696635,103.189087 38.361424,101.471858 C32.9082409,98.7052122 28.9157318,93.9828338 27.0655447,88.2587389 C25.2153576,82.5346439 25.7996272,76.4289426 28.623597,71.086454 C34.4662932,60.0675712 48.3913858,55.8222008 59.638576,61.5462957 C65.0917591,64.3129416 69.0842682,69.03532 70.9344553,74.7594149 C72.7846424,80.4835099 72.2003728,86.5892112 69.376403,91.9316998 C65.2865157,99.6115272 57.3014975,104 48.9756554,104 M49.0730337,59.5428625 C40.9906373,59.5428625 33.1516866,63.8359337 29.1591775,71.3249579 C26.3838968,76.5243442 25.8483163,82.4869431 27.6498143,88.0679357 C29.4513123,93.6489283 33.3464431,98.2282043 38.6535588,100.947149 C43.9606745,103.666094 50.0468164,104.190803 55.7434452,102.425874 C61.440074,100.660945 66.114231,96.8448813 68.8895116,91.645495 C71.6647923,86.4461088 72.2003728,80.4835099 70.3988748,74.9025173 C68.5973768,69.3215247 64.702246,64.7422487 59.3951303,62.0233036 C56.0842691,60.3537759 52.5786514,59.5428625 49.0730337,59.5428625" id="Shape" fill="#4267C5"></path>
                <path d="M53.8561231,75.8574528 L50.4113286,82.322714 C50.0981655,82.9384531 49.3152576,83.1950111 48.6889314,82.8358299 C48.0626051,82.5279604 47.8016358,81.7582864 48.1669928,81.1425472 L51.6117873,74.677286 C51.9249504,74.0615469 52.7078583,73.8049889 53.3341845,74.1641701 C53.9605108,74.4720396 54.1692862,75.2417136 53.8561231,75.8574528" id="Path" fill="#4267C5"></path>
                <path d="M42.8574528,77.1438769 L49.322714,80.5886714 C49.9384531,80.9018345 50.1950111,81.6847424 49.8358299,82.3110686 C49.5279604,82.9373949 48.7582864,83.1983642 48.1425472,82.8330072 L41.677286,79.3882127 C41.0615469,79.0750496 40.8049889,78.2921417 41.1641701,77.6658155 C41.5233512,77.0394892 42.2417136,76.8307138 42.8574528,77.1438769" id="Path" fill="#4267C5"></path>
                <path d="M34.362277,74 C34.2760493,74 34.1467078,73.9409351 34.0604801,73.8818702 L32.335926,72.6415077 C32.0341291,72.4052482 31.9047875,71.8736643 32.0772429,71.4602101 C32.2496983,71.0467559 32.637723,70.8695613 32.9395199,71.1058208 L34.664074,72.3461833 C34.9658709,72.5824429 35.0952125,73.1140268 34.9227571,73.527481 C34.8365294,73.8228054 34.6209601,74 34.362277,74" id="Path" fill="#4267C5"></path>
                <path d="M66.362277,92 C66.2760493,92 66.1467078,91.9409351 66.0604801,91.8818702 L64.335926,90.6415077 C64.0341291,90.4052482 63.9047875,89.8736643 64.0772429,89.4602101 C64.2496983,89.0467559 64.637723,88.8695613 64.9395199,89.1058208 L66.664074,90.3461833 C66.9658709,90.5824429 67.0952125,91.1140268 66.9227571,91.527481 C66.8365294,91.8228054 66.6209601,92 66.362277,92" id="Path" fill="#4267C5"></path>
                <path d="M56.8772637,67 C56.7586472,67 56.5807226,66.9570149 56.4621061,66.9140298 C56.0469486,66.7420893 55.8690239,66.3552233 56.1062568,66.0543275 L57.3517294,64.3349229 C57.5889623,64.0340271 58.1227363,63.9050718 58.5378939,64.0770123 C58.9530514,64.2489527 59.1309761,64.6358187 58.8937432,64.9367145 L57.6482706,66.6561191 C57.5296541,66.8710447 57.233113,67 56.8772637,67" id="Path" fill="#4267C5"></path>
                <path d="M39.8772637,99 C39.7586472,99 39.5807226,98.9570149 39.4621061,98.9140298 C39.0469486,98.7420893 38.8690239,98.3552233 39.1062568,98.0543275 L40.3517294,96.3349229 C40.5889623,96.0340271 41.1227363,95.9050718 41.5378939,96.0770123 C41.9530514,96.2489527 42.1309761,96.6358187 41.8937432,96.9367145 L40.6482706,98.6561191 C40.5296541,98.8710447 40.1738048,99 39.8772637,99" id="Path" fill="#4267C5"></path>
                <path d="M43.2789443,65 C43,65 42.7210557,64.8367562 42.6280742,64.5510795 L42.0236948,62.7962082 C41.9307134,62.4697206 42.1166763,62.1432329 42.4886021,62.0208 C42.8605278,61.9391781 43.2324536,62.102422 43.3719258,62.4289096 L43.9763052,64.1837808 C44.0692866,64.5102685 43.8833237,64.8367562 43.5113979,64.959189 C43.4184165,65 43.3719258,65 43.2789443,65" id="Path" fill="#4267C5"></path>
                <path d="M54.2680285,101 C53.991465,101 53.7149014,100.836756 53.6227136,100.551079 L53.0234926,98.7962082 C52.9313048,98.4697206 53.1156804,98.1432329 53.4844318,98.0208 C53.8531832,97.9391781 54.2219346,98.102422 54.3602164,98.4289096 L54.9594373,100.183781 C55.0977191,100.510268 54.8672495,100.836756 54.4984981,100.959189 C54.4063103,101 54.3602164,101 54.2680285,101" id="Path" fill="#4267C5"></path>
                <path d="M66.5931217,78 C66.3478556,78 66.1025894,77.8161328 66.020834,77.4943653 C65.9390787,77.1266309 66.1025894,76.7588965 66.4296109,76.6209961 L68.1873515,76.0234278 C68.5143731,75.9314942 68.8413946,76.1153614 68.9640276,76.4830958 C69.0866607,76.8508301 68.8822723,77.2185645 68.5552507,77.3564649 L66.7975101,77.9540332 C66.7157548,78 66.6339994,78 66.5931217,78" id="Path" fill="#4267C5"></path>
                <path d="M30.60826,89 C30.3629939,89 30.1177277,88.8161328 30.0359724,88.4943653 C29.9133393,88.1266309 30.1177277,87.7588965 30.4447493,87.6209961 L32.2024899,87.0234278 C32.5295114,86.9314942 32.8565329,87.1153614 32.979166,87.4830958 C33.0609213,87.8508301 32.8974106,88.2185645 32.5703891,88.3564649 L30.8126485,88.9540332 C30.7308931,88.9540332 30.6900154,89 30.60826,89" id="Path" fill="#4267C5"></path>
                <path d="M140.168164,30.9258953 L147.000854,42.4509974 C147.358118,43.0119537 148.02799,43.1649418 148.519229,42.8079696 C149.010468,42.4000014 149.144442,41.635061 148.831836,41.0741047 L141.999146,29.5490026 C141.641882,28.9880463 140.97201,28.8350582 140.480771,29.1920304 C139.989532,29.5490026 139.855558,30.313943 140.168164,30.9258953" id="Path" fill="#E0ECFA"></path>
                <path d="M139.201094,37.9258953 L146.008307,49.4509974 C146.36424,50.0119537 147.031614,50.1649418 147.521022,49.8079696 C148.010429,49.4000014 148.143904,48.635061 147.832463,48.0741047 L140.980758,36.5490026 C140.624825,35.9880463 139.957451,35.8350582 139.468044,36.1920304 C138.978636,36.5999986 138.845161,37.364939 139.201094,37.9258953" id="Path" fill="#E0ECFA"></path>
                <path d="M64.7989059,28.9768913 L57.9916925,40.4509974 C57.6357598,41.0119537 56.968386,41.1649418 56.4789785,40.8079696 C55.989571,40.4000014 55.8560962,39.635061 56.1675373,39.0741047 L63.0192422,27.5490026 C63.375175,26.9880463 64.0425488,26.8350582 64.5319563,27.1920304 C65.0213638,27.5999986 65.1548386,28.364939 64.7989059,28.9768913" id="Path" fill="#E0ECFA"></path>
                <path d="M65.8012949,35.9258953 L58.9922333,47.4509974 C58.6362039,48.0119537 57.9686489,48.1649418 57.4791085,47.8079696 C56.9895681,47.4000014 56.8560571,46.635061 57.1675828,46.0741047 L63.9766444,34.5490026 C64.3326738,33.9880463 65.0002288,33.8350582 65.4897692,34.1920304 C66.0238132,34.5999986 66.1573242,35.364939 65.8012949,35.9258953" id="Path" fill="#E0ECFA"></path>
                <path d="M184,77 C184,89.6979167 173.697917,100 161,100 C148.302083,100 138,89.6979167 138,77 C138,64.3020833 148.302083,54 161,54 C173.697917,54 184,64.3020833 184,77" id="Path" fill="#CDEAA1"></path>
                <path d="M138,71 C139.035294,70.9052925 140.070588,70.7632312 141.105882,70.5264624 C149.623529,68.5849582 155.929412,62.0027855 158,54 C148.305882,54.8050139 140.352941,61.7660167 138,71" id="Path" fill="#ABDB61"></path>
                <path d="M156.973725,108 C143.683623,108 132.054783,98.129663 130.246938,84.5945969 C128.243651,69.8379545 138.650974,56.2540253 153.406896,54.2506401 C160.540554,53.273379 167.625351,55.1790381 173.39091,59.52785 C179.107608,63.8766618 182.821019,70.2288589 183.749372,77.4117279 C184.726586,84.5457339 182.821019,91.6308768 178.47242,97.3967172 C174.074959,103.113695 167.771933,106.827287 160.589415,107.755685 L160.491693,107.022739 L160.589415,107.755685 C159.367898,107.902274 158.195242,108 156.973725,108 M157.071446,55.4722164 C155.947651,55.4722164 154.774995,55.5699426 153.602339,55.7165317 C139.677048,57.5733278 129.856053,70.4731742 131.712758,84.3991447 C133.569464,98.3251152 146.468681,108.146589 160.393972,106.289793 C167.136744,105.361395 173.146607,101.892118 177.299764,96.4683191 C181.452921,91.0445201 183.211905,84.3502816 182.283552,77.6071801 C181.355199,70.8640786 177.886092,64.8539229 172.462557,60.7005633 C167.967376,57.2801495 162.592702,55.4722164 157.071446,55.4722164" id="Shape" fill="#4267C5"></path>
                <path d="M156.951303,105 C145.604963,105 135.719525,96.6214034 134.209926,85.0764768 C132.505541,72.5085819 141.368347,60.9149425 153.932105,59.2099955 C166.495864,57.5050485 178.085688,66.3707728 179.790074,78.9386677 C181.494459,91.5065625 172.631653,103.100202 160.067895,104.805149 C158.996566,104.902574 157.973935,105 156.951303,105 M159.970501,104.220596 L160.019198,104.512872 L159.970501,104.220596 C172.242079,102.564361 180.861402,91.2629987 179.205713,78.9873804 C177.550024,66.7117622 166.25238,58.0896018 153.980802,59.745836 C141.709224,61.4020702 133.089901,72.703433 134.745591,84.9790512 C136.40128,97.2546695 147.698923,105.87683 159.970501,104.220596" id="Shape" fill="#4267C5"></path>
                <path d="M156.843171,88.9949414 L156.011187,82.3346737 C155.923609,81.7206064 156.361496,81.1065392 156.930748,81.0120673 C157.5,80.9175954 158.069252,81.3899548 158.156829,82.0040221 L158.988813,88.6642898 C159.076391,89.2783571 158.638504,89.8924243 158.069252,89.9868962 C157.456211,90.0813681 156.930748,89.6562446 156.843171,88.9949414" id="Path" fill="#4267C5"></path>
                <path d="M162.995862,82.1568294 L156.334827,82.9888134 C155.720689,83.0763906 155.106551,82.6385043 155.012069,82.0692522 C154.917586,81.5 155.39,80.9307478 156.004138,80.8431706 L162.665173,80.0111866 C163.279311,79.9236094 163.893449,80.3614957 163.987931,80.9307478 C164.082414,81.5437886 163.61,82.0692522 162.995862,82.1568294" id="Path" fill="#4267C5"></path>
                <path d="M173.610729,80 C173.327779,80 173.044829,79.6676732 173.004407,79.2799587 C172.963986,78.8368563 173.206515,78.393754 173.529886,78.3383662 L175.308428,78.0060394 C175.6318,77.9506516 175.955171,78.2829784 175.995593,78.7260807 C176.036014,79.1691831 175.793485,79.6122854 175.470114,79.6676732 L173.65115,80 C173.65115,80 173.610729,80 173.610729,80" id="Path" fill="#4267C5"></path>
                <path d="M137.610729,85 C137.327779,85 137.044829,84.6676732 137.004407,84.2799587 C136.963986,83.8368563 137.206515,83.393754 137.529886,83.3383662 L139.308428,83.0060394 C139.6318,82.9506516 139.955171,83.2829784 139.995593,83.7260807 C140.036014,84.1691831 139.793485,84.6122854 139.470114,84.6676732 L137.691572,85 C137.65115,85 137.65115,85 137.610729,85" id="Path" fill="#4267C5"></path>
                <path d="M159.165663,101 C158.779116,101 158.392569,100.760348 158.337347,100.480755 L158.006021,98.683368 C157.9508,98.3638326 158.282126,98.0442971 158.723895,98.0043552 C159.165663,97.9644133 159.607431,98.2040649 159.662653,98.5236003 L159.993979,100.320987 C160.0492,100.640523 159.717874,100.960058 159.276105,101 C159.276105,101 159.220884,101 159.165663,101" id="Path" fill="#4267C5"></path>
                <path d="M154.165663,65 C153.779116,65 153.392569,64.7603484 153.337347,64.4807549 L153.006021,62.683368 C152.9508,62.3638326 153.282126,62.0442971 153.723895,62.0043552 C154.165663,61.9644133 154.607431,62.2040649 154.662653,62.5236003 L154.993979,64.3209872 C155.0492,64.6405226 154.717874,64.9600581 154.276105,65 C154.220884,65 154.165663,65 154.165663,65" id="Path" fill="#4267C5"></path>
                <path d="M172.315094,95 C172.179245,95 172.043396,94.9474836 171.907547,94.8424508 L170.277358,93.4245077 C169.960377,93.1619256 169.915094,92.6367615 170.141509,92.321663 C170.367925,91.9540481 170.820755,91.9015317 171.092453,92.1641138 L172.722642,93.5820569 C173.039623,93.8446389 173.084906,94.3698031 172.858491,94.6849015 C172.722642,94.8949672 172.496226,95 172.315094,95" id="Path" fill="#4267C5"></path>
                <path d="M143.315094,72 C143.179245,72 143.043396,71.9474836 142.907547,71.8424508 L141.277358,70.4245077 C140.960377,70.1619256 140.915094,69.6367615 141.141509,69.321663 C141.367925,68.9540481 141.820755,68.9015317 142.092453,69.1641138 L143.722642,70.5820569 C144.039623,70.8446389 144.084906,71.3698031 143.858491,71.6849015 C143.722642,71.8949672 143.496226,72 143.315094,72" id="Path" fill="#4267C5"></path>
                <path d="M144.792576,98 C144.635371,98 144.478166,97.9546314 144.320961,97.8638941 C143.954148,97.637051 143.901747,97.1833648 144.163755,96.9111531 L145.578603,95.2778828 C145.840611,94.9603025 146.364629,94.9149338 146.679039,95.1417769 C147.045852,95.36862 147.098253,95.8223062 146.836245,96.094518 L145.421397,97.7277883 C145.264192,97.9092628 145.054585,98 144.792576,98" id="Path" fill="#4267C5"></path>
                <path d="M167.792576,69 C167.635371,69 167.478166,68.9546314 167.320961,68.8638941 C166.954148,68.637051 166.901747,68.1833648 167.163755,67.9111531 L168.578603,66.2778828 C168.840611,65.9603025 169.364629,65.9149338 169.679039,66.1417769 C170.045852,66.36862 170.098253,66.8223062 169.836245,67.094518 L168.421397,68.7277883 C168.316594,68.9092628 168.054585,69 167.792576,69" id="Path" fill="#4267C5"></path>
                <path d="M113.839009,96 L101.160991,96 C100.510836,96 100,95.34 100,94.5 C100,93.66 100.510836,93 101.160991,93 L113.839009,93 C114.489164,93 115,93.66 115,94.5 C114.95356,95.34 114.442724,96 113.839009,96" id="Path" fill="#E0ECFA"></path>
                <path d="M108.839009,101 L96.1609907,101 C95.5108359,101 95,100.34 95,99.5 C95,98.66 95.5108359,98 96.1609907,98 L108.839009,98 C109.489164,98 110,98.66 110,99.5 C110,100.34 109.489164,101 108.839009,101" id="Path" fill="#E0ECFA"></path>
                <path d="M185,108.190097 C185,108.190097 186.926174,104.803517 187.677852,103.533549 C190.308725,98.9240375 192,100.146969 192,100.146969 L189.087248,112" id="Path" fill="#EDDBDC"></path>
                <path d="M189,112 C189,112 191.582609,107.860542 192.3,106.558241 C198.326087,95.4886785 200,98.3258352 200,98.3258352 L195.36087,112" id="Path" fill="#EDDBDC"></path>
                <path d="M194.610601,112.179413 C194.610601,112.179413 199.75265,105.31666 200.617668,104.116878 C203.981625,99.413732 206,101.429366 206,101.429366 C206,101.429366 191.198587,131.855838 189.180212,135.647149 C185.479859,142.701868 173.177385,148.268856 165.007774,152.444098 L168.80424,175 L138,174.664061 C138,174.664061 143.862898,151.724229 147.226855,144.333571 C147.226855,144.333571 150.879152,134.975271 154.24311,131.615882 C158.95265,126.912736 167.026148,124.225224 167.026148,124.225224 C167.602827,124.033259 168.227562,123.889285 168.80424,123.69732 L168.80424,123.69732 C168.80424,123.69732 171.591519,121.681686 172.408481,120.865835 C174.234629,119.042166 177.790813,113.95509 178.463604,112.611334 C181.15477,107.236311 184.134276,108.244128 184.134276,108.244128" id="Path" fill="#FBE0E1"></path>
                <path d="M162.850799,129.969348 C160.83659,130.114023 158.870337,129.728225 157,129.197753 C161.55595,125.966697 166.927176,124.134157 166.927176,124.134157 C167.502664,123.941259 168.12611,123.796584 168.701599,123.603686 L168.701599,123.603686 C168.701599,123.603686 171.483126,121.578247 172.298401,120.758427 C174.120782,118.925888 177.669627,113.814068 178.34103,112.463776 C181.026643,107.062607 184,108.075326 184,108.075326 C181.554174,120.179731 173.497336,129.294202 162.850799,129.969348" id="Path" fill="#F2A6A8"></path>
                <path d="M167.296322,124 C167.199011,124 167.150355,123.952168 167.053043,123.904336 C166.955731,123.760839 167.004387,123.617343 167.101699,123.521678 C167.150355,123.521678 169.923739,121.512727 170.702232,120.69958 C172.551155,118.929789 176.103032,113.859578 176.784214,112.56811 C179.557598,107.067409 182.720229,108.071885 182.817541,108.071885 C182.914852,108.119717 182.963508,108.167549 182.963508,108.215382 C183.012164,108.311046 183.012164,108.358878 182.963508,108.454542 L179.460286,115.246712 C179.411631,115.390208 179.217007,115.43804 179.07104,115.390208 C178.925072,115.342376 178.876416,115.151047 178.973728,115.007551 L182.282326,108.550207 C181.503832,108.454542 179.314319,108.693703 177.222117,112.807271 C176.540935,114.146572 172.891746,119.264614 171.042823,121.082237 C170.215674,121.895384 167.490946,123.856503 167.393634,123.952168 C167.393634,124 167.344978,124 167.296322,124" id="Path" fill="#4267C5"></path>
                <path d="M176.290178,121 C176.242139,121 176.194101,121 176.146062,120.953213 C176.001946,120.906425 175.953908,120.719276 176.049985,120.578915 C176.386255,119.923893 184.360648,104.905178 185.081226,103.641921 C186.330227,101.489707 187.579229,100.273238 188.732153,100.039301 C189.452731,99.8989395 189.837039,100.179663 189.885077,100.179663 C189.981154,100.22645 190.029193,100.366812 189.981154,100.460387 L187.002766,112.25078 C186.954728,112.391142 186.810612,112.484716 186.666497,112.437929 C186.522381,112.391142 186.426304,112.25078 186.474343,112.110418 L189.356654,100.553961 C189.212538,100.507174 189.020384,100.507174 188.780191,100.553961 C188.107652,100.694323 186.954728,101.396132 185.513572,103.875858 C184.792995,105.139114 176.578409,120.625702 176.482332,120.812851 C176.482332,120.953213 176.386255,121 176.290178,121" id="Path" fill="#4267C5"></path>
                <path d="M181.290418,120 C181.24234,120 181.194261,120 181.146183,119.952891 C181.001948,119.858672 180.95387,119.717345 181.050026,119.576017 C181.098105,119.481799 188.069457,108.12848 188.790631,106.809422 C191.867642,101.062099 194.415792,98.0471092 196.050454,98 L196.050454,98 C196.579315,98 196.867785,98.2826552 196.963941,98.4710921 C197.01202,98.5182013 197.01202,98.6124197 196.963941,98.7066381 L192.300347,112.556745 C192.252269,112.698073 192.108034,112.792291 191.963799,112.745182 C191.819564,112.698073 191.723407,112.556745 191.771486,112.415418 L196.387002,98.7066381 C196.338923,98.6595289 196.194689,98.5653105 195.954297,98.5653105 C195.281201,98.6124197 193.309991,99.4603854 189.175258,107.092077 C188.454083,108.364026 181.723122,119.38758 181.434653,119.858672 C181.482731,119.952891 181.386574,120 181.290418,120" id="Path" fill="#4267C5"></path>
                <path d="M136.252543,175 C136.252543,175 136.204532,175 136.204532,175 C136.0605,174.95202 135.964478,174.808081 136.012489,174.664141 C136.0605,174.424242 141.917822,151.633838 145.23057,144.292929 C145.374603,143.909091 148.927405,134.840909 152.288163,131.482323 C156.993226,126.780303 165.059047,124.045455 165.155068,124.045455 C176.437615,120.734848 186.567902,118.04798 186.663924,118 C186.759946,118 186.807957,118 186.903978,118.04798 C186.951989,118.09596 187,118.191919 187,118.239899 C187,118.431818 187,123.181818 184.215371,125.19697 C179.894396,128.267677 176.053529,129.707071 175.477399,129.89899 C175.093312,130.378788 172.548737,133.401515 169.668087,135.416667 C169.524055,135.512626 169.380022,135.464646 169.284,135.368687 C169.187979,135.224747 169.23599,135.080808 169.332011,134.984848 C172.356694,132.873737 175.045301,129.563131 175.045301,129.515152 C175.093312,129.467172 175.141323,129.467172 175.189334,129.419192 C175.237344,129.419192 179.222244,128.027778 183.831285,124.765152 C185.991772,123.229798 186.327848,119.727273 186.375859,118.623737 C184.503436,119.151515 175.333366,121.598485 165.25109,124.573232 C165.203079,124.573232 157.185269,127.308081 152.624239,131.866162 C149.359502,135.128788 145.710679,144.388889 145.662668,144.484848 C142.34992,151.777778 136.540608,174.520202 136.492597,174.760101 C136.492597,174.90404 136.396576,175 136.252543,175" id="Path" fill="#4267C5"></path>
                <path d="M166.128806,175 C165.983083,175 165.885935,174.903489 165.83736,174.758722 L162,152.078606 C162,151.982095 162.048574,151.837328 162.145723,151.789073 C162.922909,151.403028 163.797245,150.968728 164.623006,150.534428 C172.880617,146.432705 183.129769,141.36587 186.481388,135.044391 C188.375781,131.425224 202.073701,103.485251 203.385204,100.831195 C203.190907,100.734684 202.850888,100.541662 202.316572,100.589917 C201.539385,100.686428 200.227882,101.265495 198.527785,103.581762 C197.65345,104.788151 186.189943,119.795632 186.04422,119.940399 C185.947072,120.03691 185.80135,120.085166 185.655627,119.988655 C185.558479,119.892144 185.509904,119.747377 185.607053,119.60261 C185.704201,119.457843 197.167708,104.450362 198.042044,103.243973 C199.499269,101.21724 200.90792,100.107361 202.267997,100.01085 C203.288055,99.9143392 203.870945,100.493406 203.91952,100.493406 C204.016668,100.589917 204.016668,100.686428 203.968094,100.782939 C203.822371,101.072473 188.958671,131.425224 186.96713,135.189158 C183.566937,141.655404 173.220636,146.818749 164.865877,150.920473 C164.08869,151.306517 163.311503,151.692562 162.534316,152.078606 L166.323102,174.5657 C166.420251,174.806978 166.323102,174.951744 166.128806,175 C166.128806,175 166.128806,175 166.128806,175" id="Path" fill="#4267C5"></path>
                <path d="M22,108.190097 C22,108.190097 20.0738255,104.803517 19.3221477,103.533549 C16.6912752,98.9240375 15,100.146969 15,100.146969 L17.9127517,112" id="Path" fill="#EDDBDC"></path>
                <path d="M18,111.953495 C18,111.953495 15.4061135,107.814575 14.6855895,106.512442 C8.68122271,95.4908221 7,98.3276104 7,98.3276104 L11.6593886,112" id="Path" fill="#EDDBDC"></path>
                <path d="M11.3893993,113.179413 C11.3893993,113.179413 6.24734982,106.31666 5.38233216,105.116878 C2.01837456,100.413732 0,102.429366 0,102.429366 C0,102.429366 14.8014134,132.855838 16.819788,136.647149 C20.5201413,143.701868 32.8226148,149.268856 40.9922261,153.444098 L37.1957597,176 L68,175.664061 C68,175.664061 62.1371025,152.724229 58.7731449,145.333571 C58.7731449,145.333571 55.1208481,135.975271 51.7568905,132.615882 C47.0473498,127.912736 38.9738516,125.225224 38.9738516,125.225224 C38.3971731,125.033259 37.7724382,124.889285 37.1957597,124.69732 L37.1957597,124.69732 C37.1957597,124.69732 34.4084806,122.681686 33.5915194,121.865835 C31.765371,120.042166 28.2091873,114.95509 27.5363958,113.611334 C24.8452297,108.236311 21.8657244,109.244128 21.8657244,109.244128" id="Path" fill="#FBE0E1"></path>
                <path d="M43.1492007,130.969348 C45.1634103,131.114023 47.1296625,130.728225 49,130.197753 C44.4440497,126.966697 39.0728242,125.134157 39.0728242,125.134157 C38.4973357,124.941259 37.8738899,124.796584 37.2984014,124.603686 L37.2984014,124.603686 C37.2984014,124.603686 34.5168739,122.578247 33.7015986,121.758427 C31.8792185,119.925888 28.330373,114.814068 27.6589698,113.463776 C24.973357,108.062607 22,109.075326 22,109.075326 C24.4937833,121.179731 32.5506217,130.294202 43.1492007,130.969348" id="Path" fill="#F2A6A8"></path>
                <path d="M39.7377985,124 C39.6891875,124 39.6405765,124 39.5919656,123.952229 C39.4947437,123.856688 36.7725299,121.898094 35.9461435,121.085994 C34.098927,119.270712 30.453105,114.15926 29.7725516,112.821683 C27.6822803,108.713413 25.543398,108.47456 24.7170117,108.570102 L28.022557,115.01913 C28.0711679,115.162442 28.022557,115.305754 27.9253351,115.401295 C27.7795022,115.449066 27.6336693,115.401295 27.5364474,115.257983 L24.0364582,108.47456 C23.9878473,108.42679 23.9878473,108.331249 24.0364582,108.235707 C24.0850692,108.140166 24.1336801,108.092396 24.1822911,108.092396 C24.328124,108.044625 27.4392255,107.089213 30.2100502,112.582831 C30.8906037,113.872636 34.4392038,118.936318 36.2864203,120.70383 C37.0641956,121.468159 39.8836313,123.474524 39.8836313,123.522294 C40.0294642,123.617835 40.0294642,123.761147 39.9322423,123.904459 C39.9322423,123.952229 39.8350204,124 39.7377985,124" id="Path" fill="#4267C5"></path>
                <path d="M30.7885298,121 C30.6922386,121 30.5959474,120.953163 30.5478018,120.859488 C30.4515106,120.718976 22.2186127,105.168966 21.4964287,103.904357 C20.0039151,101.421975 18.8965662,100.719415 18.2225278,100.578903 C17.9817998,100.532065 17.7892174,100.532065 17.6447806,100.578903 L20.5335167,112.147735 C20.5816623,112.288247 20.4853711,112.42876 20.3409343,112.475597 C20.1964975,112.522434 20.0520607,112.42876 20.0039151,112.288247 L17.0188878,100.485228 C16.9707422,100.391553 17.0188878,100.251041 17.115179,100.204204 C17.1633246,100.157366 17.5484894,99.8763419 18.2706734,100.063691 C19.4261678,100.297878 20.6779535,101.51565 21.9297391,103.67017 C22.6519232,104.934779 30.644093,119.969578 30.9811122,120.625301 C31.0292578,120.765813 30.9811122,120.906325 30.884821,121 C30.8366754,121 30.8366754,121 30.7885298,121" id="Path" fill="#4267C5"></path>
                <path d="M24.7578424,120 C24.661758,120 24.5656736,119.952891 24.5176314,119.858672 C24.2293782,119.38758 17.5034698,108.364026 16.7828368,107.092077 C12.6992496,99.5074946 10.6814771,98.6124197 10.0088863,98.5653105 C9.81671744,98.5653105 9.67259083,98.6124197 9.57650643,98.7066381 L14.1885579,112.415418 C14.2366001,112.556745 14.1405157,112.698073 13.9963891,112.745182 C13.8522624,112.792291 13.7081358,112.698073 13.6600936,112.556745 L9,98.7066381 C9,98.6124197 9,98.5653105 9,98.4710921 C9.0960844,98.2826552 9.43237982,98 9.96084405,98 C11.5942789,98.0471092 14.1405157,101.062099 17.2152166,106.809422 C17.8878074,108.08137 24.8539268,119.43469 24.9500112,119.576017 C25.0460956,119.717345 24.9980534,119.858672 24.8539268,119.952891 C24.8539268,120 24.8058846,120 24.7578424,120" id="Path" fill="#4267C5"></path>
                <path d="M70.747457,175 C70.6034246,175 70.5074031,174.90396 70.5074031,174.807919 C70.4593923,174.567818 64.6500866,151.806234 61.3373421,144.507161 C61.2893313,144.41112 57.6405113,135.143218 54.3757775,131.877843 C49.7667416,127.267902 41.7969504,124.57877 41.7489396,124.57877 C31.6666737,121.601516 22.4966127,119.152485 20.6241919,118.624263 C20.6722027,119.728728 21.0082782,123.234204 23.1687638,124.770851 C27.7777996,128.084246 31.7626952,129.428812 31.810706,129.428812 C31.8587168,129.428812 31.9067276,129.476832 31.9547384,129.524853 C32.0027492,129.572873 34.6433427,132.886268 37.6680225,134.999158 C37.8120548,135.095198 37.8120548,135.239259 37.7160333,135.383319 C37.6200117,135.52738 37.4759793,135.52738 37.3319469,135.43134 C34.4512995,133.41449 31.9067276,130.389217 31.5226413,129.909014 C30.9465118,129.716933 27.1056486,128.276327 22.7846775,125.203033 C19.9520408,123.186184 20,118.480202 20,118.240101 C20,118.144061 20.0480624,118.09604 20.0960732,118.04802 C20.144084,118 20.2401056,118 20.3361271,118 C20.4321487,118.04802 30.5624255,120.737152 41.8449612,124.050548 C41.9409828,124.098568 50.0067956,126.83572 54.711853,131.493682 C58.0726084,134.855097 61.6254069,143.930918 61.7694392,144.31508 C65.0821838,151.614153 70.9395002,174.471778 70.987511,174.663858 C71.0355218,174.807919 70.9395002,174.95198 70.7954678,175 C70.7954678,174.95198 70.747457,175 70.747457,175" id="Path" fill="#4267C5"></path>
                <path d="M39.9683428,176 C39.9683428,176 39.9683428,176 39.9683428,176 C39.7740461,175.951682 39.6768977,175.806729 39.6768977,175.661776 L43.465684,153.145708 C42.7370713,152.759166 41.9598843,152.372624 41.1341232,151.986082 C32.827938,147.830756 22.4816371,142.709076 19.0328701,136.234498 C17.0413286,132.417397 2.17762871,102.073855 2.03190616,101.783948 C1.98333198,101.687313 1.98333198,101.54236 2.08048034,101.494042 C2.08048034,101.494042 2.66337053,100.914229 3.73200255,101.010864 C5.04350548,101.1075 6.50073097,102.218808 7.95795645,104.248153 C8.83229173,105.456097 20.2957988,120.482914 20.3929472,120.627868 C20.4900956,120.724503 20.4415214,120.917774 20.344373,121.01441 C20.2472247,121.111045 20.0529279,121.062727 19.9557796,120.966092 C19.8586312,120.821139 8.34654991,105.794321 7.47221462,104.586377 C5.77211823,102.218808 4.46061529,101.638995 3.68342837,101.590677 C3.14911236,101.54236 2.80909308,101.687313 2.61479635,101.832266 C3.92629928,104.489742 17.5756446,132.465714 19.5186119,136.089545 C22.8702305,142.419169 33.1193831,147.54085 41.3769941,151.59954 C42.2513294,152.0344 43.0770905,152.420942 43.8542775,152.855802 C43.9514258,152.904119 44,153.049073 44,153.145708 L40.1626396,175.855047 C40.2112138,175.903365 40.1140654,176 39.9683428,176" id="Path" fill="#4267C5"></path>
            </g>
        </g>
    </g>
</svg>