<?xml version="1.0" encoding="UTF-8"?>
<svg width="206px" height="171px" viewBox="0 0 206 171" version="1.1" xmlns="http://www.w3.org/2000/svg" xmlns:xlink="http://www.w3.org/1999/xlink">
    <!-- Generator: Sketch 61 (89581) - https://sketch.com -->
    <title>section_1_img_1</title>
    <desc>Created with Sketch.</desc>
    <g id="Phase-one-New-illustrations" stroke="none" stroke-width="1" fill="none" fill-rule="evenodd">
        <g id="WEB-4640---Var-A:-not-eligible-to-start-a-trial" transform="translate(-123.000000, -1032.000000)" fill-rule="nonzero">
            <g id="section_1_img_1" transform="translate(123.000000, 1032.000000)">
                <path d="M80,86.2214078 C79.8863346,98.1132785 73.9757355,109.780774 63.1775254,116.848584 C45.9003894,128.123424 22.6558215,123.467644 11.2324519,106.41515 C-0.190917608,89.3626567 4.52619519,66.4203213 21.8033312,55.1454816 C30.8965607,49.1995463 41.6379381,47.6850156 51.4131598,50.097046 C52.1519847,50.2653271 53.6296345,50.714077 53.6296345,50.714077 C53.6296345,50.714077 57.7784204,70.2907886 66.3033231,80.3876599 C72.7822491,87.9603134 80,83.9776586 80,86.2214078" id="Path" fill="#CDEAA1"></path>
                <polygon id="Rectangle" fill="#4267C5" transform="translate(60.717686, 135.875660) rotate(-30.776083) translate(-60.717686, -135.875660) " points="59.8572462 126.044755 61.558782 126.046427 61.5781251 145.706565 59.8765893 145.704893"></polygon>
                <polygon id="Rectangle" fill="#4267C5" transform="translate(71.597448, 128.794757) rotate(-36.550171) translate(-71.597448, -128.794757) " points="70.7362753 118.849145 72.43733 118.850965 72.4586206 138.740368 70.7575659 138.738549"></polygon>
                <path d="M81.7578824,86.4572682 C81.7578824,86.4572682 63.2909463,88.2345476 57.7565128,62.3206676 C57.6435652,61.8620148 54.3680842,51.8863177 54.1421889,52.0009809 C53.4080294,52.3449704 52.7303437,52.8036232 52.0526579,53.2622759 C41.7179505,60.1993987 38.89426,74.3029705 45.7275911,84.794652 C52.5609222,95.2863335 66.4534797,98.1529132 76.7881871,91.2157904 C78.7082967,89.8971638 80.402511,88.3492108 81.8143563,86.629263 C82.0967253,86.2852734 82.0402515,86.342605 81.7578824,86.4572682" id="Path" fill="#ABDB61"></path>
                <path d="M82.7182297,171 C82.3193942,171 81.9205588,170.943237 81.5217233,170.829711 C80.2112639,170.489132 79.0717341,169.580923 78.4449926,168.388898 L77.1915098,166.061611 C73.8868731,159.81767 69.3857301,151.246443 66.0810935,145.967475 C57.6485724,132.628147 50.4695342,134.274277 44.0881669,135.693354 C42.720731,135.97717 41.4102717,136.260985 40.1567888,136.431275 C37.6498231,136.71509 33.604492,136.601564 30.5847379,135.636591 C22.4940757,133.082252 14.9731786,126.44097 7.56623437,115.25864 C1.24184356,105.835966 -1.20814568,94.7671622 0.55812563,84.1524633 C2.26742044,73.6512905 8.02204632,64.5124321 16.6824734,58.4955439 C16.7394499,58.4387808 17.4231678,57.9846761 17.4231678,57.9846761 C28.989396,50.7189998 43.4614255,50.0378426 56.0532306,56.1114939 C56.5090425,56.3385463 56.679972,56.8494142 56.452066,57.2467558 C56.2241601,57.6440975 55.7113716,57.8711499 55.3125362,57.6440975 C43.2335195,51.7974986 29.445208,52.4786558 18.3917682,59.4037535 C18.3917682,59.4037535 17.7650268,59.8010951 17.7080503,59.8578582 C9.38948217,65.647694 3.91973876,74.3892108 2.21044395,84.4362788 C0.501149136,94.5968729 2.89416188,105.211572 8.93367022,114.293667 C16.1127084,125.135419 23.3487231,131.549648 31.0405498,133.990461 C34.0033275,134.898671 37.991682,134.955434 39.9288828,134.728382 C41.1253892,134.614856 42.3788721,134.33104 43.6893314,134.047225 C50.2416282,132.571384 58.3892668,130.754965 67.5055058,145.116028 C70.867119,150.451759 75.368262,159.022987 78.6728986,165.32369 L79.9263815,167.650977 C80.3252169,168.445661 81.0659114,169.013292 81.9205588,169.240344 C82.7752062,169.467396 83.6868301,169.297107 84.4275245,168.843002 L92.9739986,163.223456 C93.714693,162.712588 94.2274814,161.974668 94.3414344,161.066458 C94.4553874,160.158249 94.2274814,159.306802 93.6577165,158.625645 L91.9484217,156.582174 C87.4472787,151.076153 81.2368408,143.583425 77.6473217,138.417983 C67.9613178,124.511024 72.8612962,117.699453 76.7356978,112.250196 C77.5333687,111.171697 78.2740632,110.149961 78.8438281,109.071462 C79.8124285,107.368569 81.3507938,103.735731 81.6356763,100.670524 C82.0345117,96.3565289 81.3507938,91.5884288 79.4705695,86.5365133 C79.29964,86.0824085 79.527546,85.6283038 79.983358,85.4580145 C80.4391699,85.2877252 80.8949819,85.5147776 81.0659114,85.9688823 C83.0031121,91.2478503 83.8007831,96.2430027 83.3449711,100.840813 C83.0600886,103.962784 81.5786998,107.765911 80.3252169,109.922909 C79.6984755,111.058171 78.9008046,112.079906 78.1031337,113.215168 C74.2857086,118.494136 70.0124716,124.454261 79.0147576,137.396247 C82.5473002,142.504926 88.7007615,149.997655 93.2019045,155.446912 L94.9111993,157.490383 C95.7658467,158.568882 96.1646822,159.931196 95.9367762,161.293511 C95.7088703,162.655825 94.9681758,163.84785 93.828646,164.58577 L85.2821719,170.205317 C84.598454,170.716185 83.6298536,171 82.7182297,171" id="Path" fill="#4267C5"></path>
                <path d="M46.3431586,134 C46.2295397,134 46.1159208,133.943349 46.0591113,133.830048 C45.9454924,133.660096 46.0023018,133.490144 46.1727302,133.376842 L75.486413,114.058946 C75.6568414,113.945645 75.8272698,114.002295 75.9408887,114.172248 C76.0545076,114.3422 75.9976982,114.512152 75.8272698,114.625453 L46.513587,133.943349 C46.4567775,133.943349 46.3999681,134 46.3431586,134" id="Path" fill="#4267C5"></path>
                <path d="M78.3500722,169 C78.2341642,169 78.1182562,168.941189 78.0603022,168.823568 C77.9443942,168.647135 78.0023482,168.470703 78.1762102,168.353081 L93.4760658,158.061194 C93.6499278,157.943572 93.8237898,158.002383 93.9396978,158.178815 C94.0556058,158.355248 93.9976518,158.53168 93.8237898,158.649302 L78.5239342,168.941189 C78.4659802,169 78.4080262,169 78.3500722,169" id="Path" fill="#4267C5"></path>
                <path d="M132.234043,63.6026959 C120.807757,80.6481275 125.526074,103.580962 142.807621,114.851132 C160.089168,126.121302 183.339671,121.467451 194.765957,104.422019 C206.192243,87.3765874 201.473926,64.4437534 184.192379,53.1735832 C166.910832,41.8473424 143.660329,46.5572643 132.234043,63.6026959" id="Path" fill="#CDEAA1"></path>
                <polygon id="Rectangle" fill="#4267C5" transform="translate(145.104649, 134.266358) rotate(-59.249472) translate(-145.104649, -134.266358) " points="135.274075 133.40595 154.933552 133.425283 154.935223 135.126765 135.275747 135.107432"></polygon>
                <polygon id="Rectangle" fill="#4267C5" transform="translate(134.242689, 127.221500) rotate(-53.465858) translate(-134.242689, -127.221500) " points="124.29667 126.360293 144.186889 126.381581 144.188708 128.082707 124.29849 128.061419"></polygon>
                <path d="M123.380672,169 C122.41316,169 121.502561,168.71598 120.705786,168.204744 L112.168914,162.58115 C111.030665,161.842698 110.23389,160.593011 110.063153,159.286519 C109.835503,157.923224 110.23389,156.559928 111.087577,155.480652 L112.794952,153.435709 C117.291037,147.982527 123.437585,140.484401 126.966158,135.372043 C135.95833,122.420735 131.632981,116.456317 127.876758,111.173547 C127.079983,110.037467 126.283209,108.958192 125.657171,107.878916 C124.405097,105.663561 122.925372,101.914498 122.64081,98.790279 C121.844035,90.3832898 125.031134,80.8970249 132.429756,69.7066405 C145.291976,50.2796789 169.991991,44.2584569 188.60237,55.960077 C188.60237,55.960077 189.28532,56.4145089 189.342233,56.4713129 C197.992929,62.5493389 203.684177,71.6379759 205.448464,82.2035164 C207.21275,92.825861 204.708601,103.902637 198.448229,113.332098 C191.049607,124.522483 183.53716,131.168548 175.455588,133.724728 C172.439227,134.690395 168.398441,134.804003 165.894292,134.519983 C164.642218,134.349571 163.333231,134.065551 161.967331,133.781532 C155.650047,132.361432 148.422162,130.770921 139.999115,144.063052 C136.698192,149.345822 132.202106,157.923224 128.901183,164.171662 L127.649108,166.500625 C127.023071,167.693508 125.884821,168.602372 124.575834,168.943196 C124.177447,168.943196 123.77906,169 123.380672,169 M117.1203,163.774034 L121.673298,166.784645 C122.41316,167.295881 123.32376,167.409489 124.177447,167.182273 C125.031134,166.955057 125.770996,166.387017 126.169384,165.591761 L127.421458,163.262798 C130.722382,156.957556 135.218467,148.380155 138.576304,143.040581 C147.625387,128.669173 155.763871,130.543705 162.365719,131.963804 C163.674706,132.247824 164.92678,132.531844 166.121942,132.645452 C168.056966,132.872668 172.04084,132.872668 175.000289,131.907 C182.683473,129.521233 189.911357,123.045579 197.08233,112.196019 C203.115052,103.107382 205.505376,92.4850371 203.798002,82.3171244 C202.14754,72.2628197 196.683942,63.5150066 188.374721,57.7210005 C188.317808,57.6641965 187.691771,57.2665686 187.691771,57.2665686 C169.878166,46.0761843 146.259488,51.8701904 133.90948,70.5018963 C126.738508,81.3514567 123.608322,90.4968977 124.405097,98.5062591 C124.689659,101.573674 126.226296,105.209129 127.193808,106.913248 C127.762933,107.93572 128.502795,108.958192 129.29957,110.094271 C133.226531,115.547454 138.064091,122.307127 128.38897,136.224103 C124.803484,141.393265 118.656937,148.891391 114.103939,154.401377 L112.396564,156.44632 C111.82744,157.127968 111.59979,158.036832 111.713615,158.888891 C111.82744,159.797755 112.339652,160.536207 113.079514,161.047443 L117.1203,163.774034 Z" id="Shape" fill="#4267C5"></path>
                <path d="M159.681443,133 C159.624538,133 159.567633,133 159.510728,132.943278 L130.147843,113.601142 C129.977129,113.487698 129.977129,113.317533 130.034033,113.147368 C130.147843,112.977202 130.318557,112.977202 130.489272,113.033924 L159.852157,132.37606 C160.022871,132.489504 160.022871,132.659669 159.965967,132.829835 C159.909062,132.943278 159.795252,133 159.681443,133" id="Path" fill="#4267C5"></path>
                <path d="M126.674526,167 C126.616386,167 126.558245,167 126.500105,166.94105 L111.151053,156.624759 C110.976632,156.506859 110.976632,156.330008 111.034772,156.153157 C111.151053,155.976306 111.325474,155.976306 111.499895,156.035257 L126.848947,166.351547 C127.023368,166.469448 127.023368,166.646299 126.965228,166.823149 C126.907087,166.94105 126.790807,167 126.674526,167" id="Path" fill="#4267C5"></path>
                <path d="M107.276359,75.1417042 L107.276359,75.1417042 C87.0596421,81.6545264 65.3705595,70.4977788 58.8581718,50.2797133 L58.8581718,50.2797133 C52.3457841,30.0616477 63.5017874,8.37111803 83.7185041,1.8582958 C103.935221,-4.65452643 125.624303,6.50222122 132.136691,26.7202867 C138.649079,46.9383523 127.549705,68.628882 107.276359,75.1417042" id="Path" fill="#98CDFB"></path>
                <path d="M82.3728407,87 C78.6283425,87 74.9405792,86.0921098 71.5364899,84.3330725 C65.8630079,81.4391724 61.6646311,76.5025193 59.7356472,70.4310034 L50.1474625,40.6975986 C48.2184786,34.6260828 48.729092,28.1573649 51.6225679,22.5397942 C54.5160437,16.8654803 59.4519731,12.666488 65.5225989,10.7372213 L95.3083798,1.14763078 C101.379006,-0.781635941 107.846775,-0.270947691 113.463522,2.6229524 C119.137004,5.51685248 123.335381,10.4535056 125.264365,16.5250214 L134.85255,46.2584262 C138.880722,58.7419168 131.959074,72.1900407 119.477413,76.2188036 L89.6916325,85.8083941 C87.2520353,86.602798 84.812438,87 82.3728407,87 M102.570437,1.71506217 C100.301044,1.71506217 98.0316512,2.05552101 95.7622584,2.79318181 L65.9764775,12.3827723 C60.3597303,14.1985527 55.8209446,18.0570862 53.0976732,23.3341981 C50.4311366,28.5545669 49.9205233,34.5693396 51.7360375,40.1869104 L61.3242222,69.9770583 C63.1397365,75.5946291 66.9977043,80.1340802 72.2740426,82.8577509 C77.4936461,85.5246784 83.5075371,86.0353666 89.1242843,84.2195862 L118.910065,74.6299957 C130.483969,70.8849485 136.895003,58.4582011 133.150505,46.8826008 L123.56232,17.0924528 C121.746806,11.4748821 117.888838,6.93543095 112.6125,4.21176029 C109.492085,2.56620926 106.031261,1.71506217 102.570437,1.71506217" id="Shape" fill="#4267C5"></path>
                <path d="M134.671927,56 C134.615412,56 134.615412,56 134.558897,56 L101.215043,43.6620468 C101.045498,43.6059652 100.932468,43.4377204 101.045498,43.213394 C101.102013,43.0451491 101.271558,42.9329859 101.441103,43.0451491 L134.784957,55.3831023 C134.954502,55.4391839 135.067532,55.6074288 134.954502,55.8317552 C134.897987,55.8878368 134.784957,56 134.671927,56" id="Path" fill="#4267C5"></path>
                <path d="M65.3125704,78 C65.2567351,78 65.2008998,78 65.1450644,77.9441962 C64.9775585,77.8325887 64.9775585,77.6651774 65.0333938,77.4977661 L84.4082529,48.1449825 C84.5199236,47.9775711 84.6874296,47.9775711 84.8549356,48.0333749 C85.0224415,48.1449825 85.0224415,48.3123938 84.9666062,48.4798051 L65.5917471,77.8325887 C65.5359117,77.9441962 65.4242411,78 65.3125704,78" id="Path" fill="#4267C5"></path>
                <path d="M94.3625805,53 C93.9655408,53 93.5685011,52.8863636 93.2281814,52.7159091 L49.4970963,32.0340909 C49.0433367,31.8068182 48.8731768,31.2954545 49.1000567,30.8409091 C49.3269365,30.3863636 49.8374161,30.2159091 50.2911757,30.4431818 L94.0222608,51.1818182 C94.4760204,51.4090909 94.9865,51.2386364 95.2133798,50.7840909 L118.355121,8.45454545 C118.582001,8 119.149201,7.88636364 119.54624,8.11363636 C120,8.34090909 120.11344,8.90909091 119.88656,9.30681818 L96.7448186,51.6363636 C96.234339,52.5454545 95.3268197,53 94.3625805,53" id="Path" fill="#4267C5"></path>
                <path d="M88.0163284,15.1831634 C89.5533908,15.5137795 90.8627403,16.2301144 91.9443768,17.2219628 C93.0260133,18.2689138 93.7660804,19.4811729 94.2784346,20.9689454 C95.0185017,23.1730528 95.1892864,24.8812361 94.7907887,26.0934952 C94.3922911,27.3057543 93.7091522,28.0220892 92.6844439,28.3527053 C92.0013051,28.573116 91.3750944,28.5180134 90.7488838,28.1873972 C90.1796014,27.8567811 89.6672473,27.3057543 89.2687496,26.5343167 C89.1548932,28.4629107 88.3009696,29.6200671 86.8208354,30.1159913 C86.1376966,30.336402 85.5114859,30.336402 84.8283471,30.1710939 C84.1452082,30.0057859 83.5759258,29.6200671 83.0066435,29.0139375 C82.4373611,28.407808 82.0388634,27.6363704 81.697294,26.644522 C81.2987963,25.4873656 81.1849398,24.4404146 81.2987963,23.5587716 C81.4126528,22.6771287 81.7542222,21.9056911 82.2665764,21.3546642 C82.7789305,20.8036373 83.4620694,20.3628158 84.2590647,20.1424051 C85.2268447,19.811789 86.3084813,19.7566863 87.3901178,19.977097 L89.2118214,25.4873656 C89.5533908,26.5343167 90.0088167,27.2506516 90.5780991,27.6914731 C91.1473815,28.1322946 91.7735921,28.2424999 92.456731,28.0220892 C93.3675828,27.7465758 93.9368652,27.0853435 94.2215063,25.9832898 C94.5061475,24.9363388 94.3353628,23.3383609 93.5952957,21.2444588 C93.1398698,19.811789 92.3998027,18.6546326 91.3750944,17.6627842 C90.3503862,16.6709359 89.1548932,16.0648063 87.674759,15.7341902 C86.251553,15.4035741 84.6575624,15.5137795 82.9497152,16.0648063 C81.2418681,16.6158332 79.8186621,17.4974762 78.7370256,18.7097353 C77.6553891,19.9219944 76.9722502,21.3546642 76.687609,23.0077448 C76.4029679,24.6057227 76.5168243,26.2588032 77.0861067,27.9669865 C77.7123173,29.7853751 78.5662409,31.218045 79.7617339,32.3200987 C80.9572269,33.4221524 82.3235046,34.0833846 83.9174953,34.4140008 C85.5114859,34.6895142 87.1054766,34.5793088 88.8133237,34.028282 C90.2365297,33.5874605 91.5458792,32.9262282 92.6275157,32.0996879 L92.9121569,32.4854067 C92.3428745,32.9262282 91.7735921,33.311947 91.1473815,33.5874605 C90.5211709,33.9180766 89.838032,34.19359 88.9841085,34.4691034 C87.1624048,35.0201303 85.4545577,35.1303357 83.8036388,34.8548222 C82.1527199,34.5242061 80.6725857,33.8078712 79.4201645,32.6507148 C78.1677432,31.4935584 77.1999632,30.0057859 76.5737526,28.0771919 C76.0044702,26.3139059 75.8336855,24.6057227 76.1752549,22.8975394 C76.4598961,21.1893561 77.1999632,19.7015836 78.3385279,18.3791192 C79.4770927,17.1117574 80.9572269,16.1750117 82.7789305,15.5688822 C84.7714188,14.9627526 86.479266,14.8525473 88.0163284,15.1831634 M88.4148261,28.2976026 C88.8133237,27.6363704 88.9841085,26.8098301 88.9271802,25.9281871 L87.1054766,20.3628158 C86.1946248,20.2526105 85.3407012,20.3077132 84.5437059,20.5281239 C83.4051411,20.9138427 82.6081458,21.5750749 82.1527199,22.622026 C81.697294,23.668977 81.7542222,24.9363388 82.2665764,26.479214 C82.7220023,27.8016784 83.3482129,28.7384241 84.1452082,29.289451 C84.9422036,29.8404778 85.7961271,29.9506832 86.7639072,29.6751698 C87.447046,29.3996563 88.0163284,28.9588348 88.4148261,28.2976026" id="Shape" fill="#739CD3"></path>
                <path d="M86.6811849,36 C86.0587045,36 85.4928132,35.9429477 84.8703327,35.8288431 C83.2292479,35.4865293 81.7013414,34.7448494 80.4563805,33.5467512 C79.1548305,32.3486529 78.1928153,30.7511886 77.5703349,28.7543582 C77.0044436,26.9286846 76.8346762,25.1030111 77.174211,23.2773376 C77.4571566,21.5087163 78.1928153,19.911252 79.3245979,18.5419968 C80.4563805,17.1727417 81.9842871,16.2028526 83.7951392,15.5752773 C85.6625806,14.9477021 87.3602545,14.8335975 88.9447501,15.2329635 C90.4726567,15.5752773 91.8307958,16.3169572 92.9059893,17.4009509 C93.9811828,18.4849445 94.7734306,19.7971474 95.2827328,21.3375594 C96.0183915,23.6767036 96.1881589,25.4453249 95.7920349,26.7004754 C95.395911,27.955626 94.6602523,28.8114105 93.641648,29.1537242 C92.9059893,29.3819334 92.2269197,29.3248811 91.6044393,28.9825674 C91.0951371,28.6973059 90.6990132,28.2979398 90.3028893,27.6703645 C90.0765327,29.3819334 89.2276958,30.5229794 87.8129675,30.9793978 C87.133898,31.207607 86.4548284,31.207607 85.7757588,31.0364501 C85.0966892,30.8652932 84.4742088,30.4088748 83.9083175,29.7812995 C83.3424262,29.1537242 82.8897132,28.2979398 82.6067675,27.2709984 C82.2106436,26.0729002 82.0974653,24.9318542 82.2106436,24.0190174 C82.3238218,23.0491284 82.6633566,22.2503962 83.2292479,21.6228209 C83.7951392,20.9952456 84.4742088,20.5388273 85.2664566,20.3106181 C86.285061,19.9683043 87.3602545,19.911252 88.435448,20.1394612 L88.5486262,20.1394612 L90.4160675,25.9017433 C90.7556023,26.9286846 91.2083154,27.6703645 91.7176175,28.0697306 C92.2269197,28.4690967 92.792811,28.5832013 93.4152915,28.3549921 C94.2641284,28.0697306 94.7734306,27.4421553 95.0563762,26.3581616 C95.3393219,25.274168 95.1695545,23.6767036 94.4338958,21.5087163 C93.9811828,20.0824089 93.2455241,18.8843106 92.2835088,17.8573693 C91.3214936,16.8874802 90.0765327,16.2028526 88.7183936,15.9175911 C87.3036653,15.5752773 85.7757588,15.6893819 84.0780849,16.2599049 C82.380411,16.8304279 81.0222718,17.6862124 80.0036675,18.9413629 C78.9850631,20.1965135 78.3059936,21.6228209 78.0230479,23.2773376 C77.7401023,24.9318542 77.9098697,26.6434231 78.4191718,28.3549921 C78.9850631,30.1806656 79.8904892,31.6640254 81.0222718,32.8050713 C82.1540545,33.889065 83.5121936,34.6307448 85.0401001,34.9160063 C86.5680066,35.2012678 88.2090914,35.0871632 89.8501762,34.5736926 C91.2649045,34.1172742 92.5098654,33.4326466 93.5850588,32.5768621 L93.6982371,32.4627575 L94.1509502,33.1473851 L94.0377719,33.2614897 C93.4718806,33.7179081 92.8494002,34.1172742 92.2269197,34.459588 C91.6044393,34.8019017 90.8687806,35.0871632 90.0765327,35.3724247 C88.9447501,35.8288431 87.8129675,36 86.6811849,36 M87.1904871,15.3470681 C86.1718827,15.3470681 85.0966892,15.518225 83.9649066,15.9175911 C82.2106436,16.4881141 80.7393262,17.4580032 79.6075436,18.770206 C78.5323501,20.0824089 77.7966914,21.6228209 77.5137457,23.3343899 C77.2308001,25.0459588 77.3439783,26.8716323 77.9098697,28.6402536 C78.5323501,30.5800317 79.4377762,32.1204437 80.6827371,33.318542 C81.9276979,34.459588 83.3424262,35.2012678 84.9269219,35.5435816 C86.5114175,35.8288431 88.2090914,35.7147385 89.9633545,35.1442155 C90.7556023,34.858954 91.491261,34.5736926 92.0571523,34.2313788 C92.6230436,33.9461173 93.1323458,33.5467512 93.6982371,33.2044374 L93.641648,33.0903328 C92.5664545,33.889065 91.3214936,34.5736926 89.9633545,35.0301109 C88.2656806,35.6006339 86.5680066,35.7147385 84.983511,35.429477 C83.3990153,35.1442155 81.9842871,34.4025357 80.7959153,33.2614897 C79.6075436,32.1204437 78.7021175,30.5800317 78.079637,28.6973059 C77.5137457,26.9286846 77.4005675,25.2171157 77.6835131,23.5055468 C77.9664588,21.7939778 78.6455284,20.3106181 79.7207218,18.9984152 C80.7959153,17.6862124 82.2106436,16.7733756 83.9649066,16.2028526 C85.6625806,15.6323296 87.3036653,15.518225 88.7749827,15.8605388 C90.2463001,16.2028526 91.491261,16.8874802 92.5098654,17.9144216 C93.5284697,18.9413629 94.2641284,20.1965135 94.7734306,21.6798732 C95.4525002,23.9049128 95.6788567,25.5594295 95.395911,26.7004754 C95.1129654,27.8415214 94.4338958,28.5832013 93.5284697,28.9255151 C92.792811,29.1537242 92.1137415,29.0396197 91.491261,28.5832013 C90.9253697,28.1267829 90.4160675,27.3280507 90.0765327,26.2440571 L88.3222697,20.6529319 C87.3036653,20.481775 86.3416501,20.5388273 85.3796349,20.8240887 C84.5873871,21.0522979 83.9649066,21.5087163 83.4556045,22.0792393 C82.9463023,22.6497623 82.6633566,23.3914422 82.4935892,24.3042789 C82.380411,25.2171157 82.4935892,26.2440571 82.8897132,27.4421553 C83.2292479,28.4120444 83.6253719,29.2107765 84.134674,29.7812995 C84.6439762,30.3518225 85.2098675,30.7511886 85.8323479,30.9223455 C86.4548284,31.0935024 87.0773088,31.0935024 87.6997893,30.8652932 C89.1145175,30.4088748 89.9067654,29.2107765 90.0199436,27.3280507 L90.0765327,26.7004754 L90.3594784,27.2709984 C90.6990132,28.0126783 91.2083154,28.5832013 91.7742067,28.8684628 C92.340098,29.1537242 92.9059893,29.2107765 93.5850588,29.0396197 C94.5470741,28.7543582 95.1695545,28.0126783 95.5656784,26.81458 C95.9052132,25.6164818 95.7354458,23.9049128 95.0563762,21.6228209 C94.6036632,20.1394612 93.8114154,18.8272583 92.792811,17.800317 C91.7742067,16.7733756 90.4726567,16.088748 89.0013393,15.7464342 C88.3222697,15.4041204 87.7563784,15.3470681 87.1904871,15.3470681 M86.737774,30.6941363 C86.1152936,30.6941363 85.5494023,30.5229794 85.0401001,30.1236133 C84.2478523,29.5530903 83.5687827,28.526149 83.1160697,27.1568938 C82.6067675,25.5594295 82.5501784,24.1901743 83.0028914,23.0491284 C83.4556045,21.9080824 84.2478523,21.1664025 85.436224,20.7670365 C86.2284719,20.481775 87.133898,20.4247227 88.039324,20.5388273 L88.1525023,20.5388273 L90.0199436,26.4152139 C90.0199436,27.385103 89.8501762,28.2408875 89.4540523,28.9825674 C89.0579284,29.7242472 88.4920371,30.2377179 87.6997893,30.4659271 C87.3602545,30.637084 87.0207197,30.6941363 86.737774,30.6941363 M87.1904871,20.881141 C86.6245958,20.881141 86.0587045,20.9381933 85.5494023,21.1093502 C84.4742088,21.451664 83.681961,22.1362916 83.2858371,23.163233 C82.8897132,24.1901743 82.9463023,25.5023772 83.3990153,27.0427892 C83.8517284,28.4120444 84.4176197,29.3248811 85.2098675,29.8383518 C85.9455262,30.3518225 86.737774,30.4659271 87.6432001,30.1806656 C88.3222697,29.9524564 88.8315719,29.496038 89.2276958,28.8114105 C89.5672306,28.1267829 89.736998,27.3280507 89.736998,26.4722662 L87.9261458,20.8240887 C87.6432001,20.881141 87.4168436,20.881141 87.1904871,20.881141" id="Shape" fill="#4267C5"></path>
                <path d="M42.2825461,21.5263023 L26.1333588,35.5436022 C25.3483288,36.2386749 24.1147103,36.1228294 23.4418275,35.3119112 C22.7689447,34.5009931 22.8810919,33.2266931 23.6661218,32.5316204 L39.8713827,18.4563978 C40.6564127,17.7613251 41.8900312,17.8771706 42.562914,18.6880888 C43.2357968,19.5569296 43.1236496,20.8312296 42.2825461,21.5263023" id="Path" fill="#E0ECFA"></path>
                <path d="M41.3340361,33.4683796 L25.1326161,47.5436022 C24.3477722,48.2386749 23.1144461,48.1228294 22.4417228,47.3119112 C21.7689995,46.5009931 21.88112,45.2266931 22.6659639,44.5316204 L38.8673839,30.4563978 C39.6522278,29.7613251 40.8855539,29.8771706 41.5582772,30.6880888 C42.2310005,31.5569296 42.11888,32.7733069 41.3340361,33.4683796" id="Path" fill="#E0ECFA"></path>
            </g>
        </g>
    </g>
</svg>