<?xml version="1.0" encoding="UTF-8"?>
<svg width="165px" height="176px" viewBox="0 0 165 176" version="1.1" xmlns="http://www.w3.org/2000/svg" xmlns:xlink="http://www.w3.org/1999/xlink">
    <!-- Generator: Sketch 61 (89581) - https://sketch.com -->
    <title>section_1_img_4</title>
    <desc>Created with Sketch.</desc>
    <g id="Phase-one-New-illustrations" stroke="none" stroke-width="1" fill="none" fill-rule="evenodd">
        <g id="WEB-4640---Var-A:-not-eligible-to-start-a-trial" transform="translate(-1079.000000, -1032.000000)" fill-rule="nonzero">
            <g id="section_1_img_4" transform="translate(1079.000000, 1032.000000)">
                <path d="M137.075718,161 L37.924282,161 C22.5456919,161 10,148.454308 10,133.075718 L10,33.924282 C10,18.5456919 22.5456919,6 37.924282,6 L137.075718,6 C152.454308,6 165,18.5456919 165,33.924282 L165,133.133532 C165,148.454308 152.454308,161 137.075718,161" id="Path" fill="#CDEAA1"></path>
                <path d="M74.3700047,174.989257 L16.2468265,172.95803 C13.3319229,172.95803 11,170.752698 11,168.02505 L11.6412788,18.9329801 C11.6412788,16.2053323 13.9732017,14 16.8881053,14 L129.753173,14 C132.668077,14 135,16.2633674 135,18.9910152 C134.825106,29.7855364 131.910202,57.294155 109.873531,93.4499975 C89.5275035,126.820157 87.6036671,157.056424 85.7381288,168.199155 C84.3972732,175.569608 77.1683122,174.989257 74.3700047,174.989257" id="Path" fill="#ABDB61"></path>
                <path d="M136.204269,170 L23.7375782,170 C11.1766654,170 1,159.827079 1,147.270787 L1,34.7873436 C1,22.2310522 11.1766654,12.058131 23.7375782,12.058131 L33.9142437,12.058131 C34.4957674,12.058131 34.9609864,12.5231788 34.9609864,13.1044886 C34.9609864,13.6857984 34.4957674,14.1508462 33.9142437,14.1508462 L23.7375782,14.1508462 C12.3397129,14.1508462 3.03533309,23.4518028 3.03533309,34.8454746 L3.03533309,147.328918 C3.03533309,158.72259 12.3397129,168.023547 23.7375782,168.023547 L136.262422,168.023547 C147.660287,168.023547 156.964667,158.72259 156.964667,147.328918 L156.964667,34.7873436 C156.964667,23.3936718 147.660287,14.0927152 136.262422,14.0927152 L126.085756,14.0927152 C125.504233,14.0927152 125.039014,13.6276674 125.039014,13.0463576 C125.039014,12.4650478 125.504233,12 126.085756,12 L136.262422,12 C148.823335,12 159,22.1729213 159,34.7292127 L159,147.212656 C158.941848,159.768948 148.765182,170 136.204269,170" id="Path" fill="#4267C5"></path>
                <path d="M113.964344,14 L45.0356564,14 C44.4602917,14 44,13.5555556 44,13 C44,12.4444444 44.4602917,12 45.0356564,12 L113.964344,12 C114.539708,12 115,12.4444444 115,13 C114.942464,13.5555556 114.539708,14 113.964344,14" id="Path" fill="#739CD3"></path>
                <path d="M158.01141,54 L2.04674273,54 C1.46521899,54 1,53.5555556 1,53 C1,52.4444444 1.46521899,52 2.04674273,52 L157.953257,52 C158.534781,52 159,52.4444444 159,53 C159,53.5555556 158.534781,54 158.01141,54" id="Path" fill="#4267C5"></path>
                <path d="M40.1528384,27 L38.8471616,27 C35.6113537,27 33,24.3630573 33,21.0955414 L33,5.9044586 C33,2.63694268 35.6681223,0 38.8471616,0 L40.1528384,0 C43.3886463,0 46,2.63694268 46,5.9044586 L46,21.1528662 C46,24.3630573 43.3886463,27 40.1528384,27 M38.8471616,2.00636943 C36.7467249,2.00636943 35.0436681,3.72611465 35.0436681,5.9044586 L35.0436681,21.1528662 C35.0436681,23.2738854 36.7467249,25.0509554 38.8471616,25.0509554 L40.1528384,25.0509554 C42.2532751,25.0509554 44.0131004,23.3312102 44.0131004,21.1528662 L44.0131004,5.9044586 C44.0131004,3.78343949 42.3100437,2.00636943 40.1528384,2.00636943 L38.8471616,2.00636943 Z" id="Shape" fill="#4267C5"></path>
                <path d="M120.152838,27 L118.847162,27 C115.611354,27 113,24.3630573 113,21.0955414 L113,5.9044586 C113,2.63694268 115.611354,0 118.847162,0 L120.152838,0 C123.388646,0 126,2.63694268 126,5.9044586 L126,21.1528662 C126,24.3630573 123.331878,27 120.152838,27 M118.847162,2.00636943 C116.746725,2.00636943 115.043668,3.72611465 115.043668,5.9044586 L115.043668,21.1528662 C115.043668,23.2738854 116.746725,25.0509554 118.847162,25.0509554 L120.152838,25.0509554 C122.253275,25.0509554 124.0131,23.3312102 124.0131,21.1528662 L124.0131,5.9044586 C124.0131,3.78343949 122.310044,2.00636943 120.152838,2.00636943 L118.847162,2.00636943 Z" id="Shape" fill="#4267C5"></path>
                <path d="M40.1926092,91 L28.8635045,91 C26.1742726,91 24,88.8256131 24,86.1362398 L24,74.8637602 C24,72.1743869 26.1742726,70 28.8635045,70 L40.1353915,70 C42.8246234,70 44.998896,72.1743869 44.998896,74.8637602 L44.998896,86.1362398 C45.0561137,88.7683924 42.8818411,91 40.1926092,91 M28.8635045,70.6866485 C26.5747965,70.6866485 24.7438301,72.5177112 24.7438301,74.8065395 L24.7438301,86.0790191 C24.7438301,88.3678474 26.5747965,90.1989101 28.8635045,90.1989101 L40.1353915,90.1989101 C42.4240995,90.1989101 44.2550659,88.3678474 44.2550659,86.0790191 L44.2550659,74.8065395 C44.2550659,72.5177112 42.4240995,70.6866485 40.1353915,70.6866485 L28.8635045,70.6866485 Z" id="Shape" fill="#739CD3"></path>
                <path d="M70.1362398,91 L58.8637602,91 C56.1743869,91 54,88.8256131 54,86.1362398 L54,74.8637602 C54,72.1743869 56.1743869,70 58.8637602,70 L70.1362398,70 C72.8256131,70 75,72.1743869 75,74.8637602 L75,86.1362398 C75,88.7683924 72.8256131,91 70.1362398,91 M58.8637602,70.6866485 C56.5749319,70.6866485 54.7438692,72.5177112 54.7438692,74.8065395 L54.7438692,86.0790191 C54.7438692,88.3678474 56.5749319,90.1989101 58.8637602,90.1989101 L70.1362398,90.1989101 C72.4250681,90.1989101 74.2561308,88.3678474 74.2561308,86.0790191 L74.2561308,74.8065395 C74.2561308,72.5177112 72.4250681,70.6866485 70.1362398,70.6866485 L58.8637602,70.6866485 Z" id="Shape" fill="#739CD3"></path>
                <path d="M100.13624,91 L88.8637602,91 C86.1743869,91 84,88.8256131 84,86.1362398 L84,74.8637602 C84,72.1743869 86.1743869,70 88.8637602,70 L100.13624,70 C102.825613,70 105,72.1743869 105,74.8637602 L105,86.1362398 C105,88.7683924 102.825613,91 100.13624,91 M88.8637602,70.6866485 C86.5749319,70.6866485 84.7438692,72.5177112 84.7438692,74.8065395 L84.7438692,86.0790191 C84.7438692,88.3678474 86.5749319,90.1989101 88.8637602,90.1989101 L100.13624,90.1989101 C102.425068,90.1989101 104.256131,88.3678474 104.256131,86.0790191 L104.256131,74.8065395 C104.256131,72.5177112 102.425068,70.6866485 100.13624,70.6866485 L88.8637602,70.6866485 Z" id="Shape" fill="#739CD3"></path>
                <path d="M130.13624,91 L118.86376,91 C116.174387,91 114,88.8256131 114,86.1362398 L114,74.8637602 C114,72.1743869 116.174387,70 118.86376,70 L130.13624,70 C132.825613,70 135,72.1743869 135,74.8637602 L135,86.1362398 C135,88.7683924 132.825613,91 130.13624,91 M118.80654,70.6866485 C116.517711,70.6866485 114.686649,72.5177112 114.686649,74.8065395 L114.686649,86.0790191 C114.686649,88.3678474 116.517711,90.1989101 118.80654,90.1989101 L130.079019,90.1989101 C132.367847,90.1989101 134.19891,88.3678474 134.19891,86.0790191 L134.19891,74.8065395 C134.19891,72.5177112 132.367847,70.6866485 130.079019,70.6866485 L118.80654,70.6866485 Z" id="Shape" fill="#4267C5"></path>
                <path d="M40.1926092,120 L28.8635045,120 C26.1742726,120 24,117.825613 24,115.13624 L24,103.86376 C24,101.174387 26.1742726,99 28.8635045,99 L40.1353915,99 C42.8246234,99 44.998896,101.174387 44.998896,103.86376 L44.998896,115.13624 C45.0561137,117.768392 42.8818411,120 40.1926092,120 M28.8635045,99.6866485 C26.5747965,99.6866485 24.7438301,101.517711 24.7438301,103.80654 L24.7438301,115.079019 C24.7438301,117.367847 26.5747965,119.19891 28.8635045,119.19891 L40.1353915,119.19891 C42.4240995,119.19891 44.2550659,117.367847 44.2550659,115.079019 L44.2550659,103.80654 C44.2550659,101.517711 42.4240995,99.6866485 40.1353915,99.6866485 L28.8635045,99.6866485 Z" id="Shape" fill="#739CD3"></path>
                <path d="M70.1362398,120 L58.8637602,120 C56.1743869,120 54,117.825613 54,115.13624 L54,103.86376 C54,101.174387 56.1743869,99 58.8637602,99 L70.1362398,99 C72.8256131,99 75,101.174387 75,103.86376 L75,115.13624 C75,117.768392 72.8256131,120 70.1362398,120 M58.8637602,99.6866485 C56.5749319,99.6866485 54.7438692,101.517711 54.7438692,103.80654 L54.7438692,115.079019 C54.7438692,117.367847 56.5749319,119.19891 58.8637602,119.19891 L70.1362398,119.19891 C72.4250681,119.19891 74.2561308,117.367847 74.2561308,115.079019 L74.2561308,103.80654 C74.2561308,101.517711 72.4250681,99.6866485 70.1362398,99.6866485 L58.8637602,99.6866485 Z" id="Shape" fill="#739CD3"></path>
                <path d="M100.13624,120 L88.8637602,120 C86.1743869,120 84,117.825613 84,115.13624 L84,103.86376 C84,101.174387 86.1743869,99 88.8637602,99 L100.13624,99 C102.825613,99 105,101.174387 105,103.86376 L105,115.13624 C105,117.768392 102.825613,120 100.13624,120 M88.8637602,99.6866485 C86.5749319,99.6866485 84.7438692,101.517711 84.7438692,103.80654 L84.7438692,115.079019 C84.7438692,117.367847 86.5749319,119.19891 88.8637602,119.19891 L100.13624,119.19891 C102.425068,119.19891 104.256131,117.367847 104.256131,115.079019 L104.256131,103.80654 C104.256131,101.517711 102.425068,99.6866485 100.13624,99.6866485 L88.8637602,99.6866485 Z" id="Shape" fill="#4267C5"></path>
                <path d="M130.13624,120 L118.86376,120 C116.174387,120 114,117.825613 114,115.13624 L114,103.86376 C114,101.174387 116.174387,99 118.86376,99 L130.13624,99 C132.825613,99 135,101.174387 135,103.86376 L135,115.13624 C135,117.768392 132.825613,120 130.13624,120 M118.80654,99.6866485 C116.517711,99.6866485 114.686649,101.517711 114.686649,103.80654 L114.686649,115.079019 C114.686649,117.367847 116.517711,119.19891 118.80654,119.19891 L130.079019,119.19891 C132.367847,119.19891 134.19891,117.367847 134.19891,115.079019 L134.19891,103.80654 C134.19891,101.517711 132.367847,99.6866485 130.079019,99.6866485 L118.80654,99.6866485 Z" id="Shape" fill="#4267C5"></path>
                <path d="M40.1926092,149 L28.8635045,149 C26.1742726,149 24,146.825613 24,144.13624 L24,132.86376 C24,130.174387 26.1742726,128 28.8635045,128 L40.1353915,128 C42.8246234,128 44.998896,130.174387 44.998896,132.86376 L44.998896,144.13624 C45.0561137,146.825613 42.8818411,149 40.1926092,149 M28.8635045,128.686649 C26.5747965,128.686649 24.7438301,130.517711 24.7438301,132.80654 L24.7438301,144.079019 C24.7438301,146.367847 26.5747965,148.19891 28.8635045,148.19891 L40.1353915,148.19891 C42.4240995,148.19891 44.2550659,146.367847 44.2550659,144.079019 L44.2550659,132.80654 C44.2550659,130.517711 42.4240995,128.686649 40.1353915,128.686649 L28.8635045,128.686649 Z" id="Shape" fill="#739CD3"></path>
                <path d="M70.1362398,149 L58.8637602,149 C56.1743869,149 54,146.825613 54,144.13624 L54,132.86376 C54,130.174387 56.1743869,128 58.8637602,128 L70.1362398,128 C72.8256131,128 75,130.174387 75,132.86376 L75,144.13624 C75,146.825613 72.8256131,149 70.1362398,149 M58.8637602,128.686649 C56.5749319,128.686649 54.7438692,130.517711 54.7438692,132.80654 L54.7438692,144.079019 C54.7438692,146.367847 56.5749319,148.19891 58.8637602,148.19891 L70.1362398,148.19891 C72.4250681,148.19891 74.2561308,146.367847 74.2561308,144.079019 L74.2561308,132.80654 C74.2561308,130.517711 72.4250681,128.686649 70.1362398,128.686649 L58.8637602,128.686649 Z" id="Shape" fill="#739CD3"></path>
                <path d="M100.13624,149 L88.8637602,149 C86.1743869,149 84,146.825613 84,144.13624 L84,132.86376 C84,130.174387 86.1743869,128 88.8637602,128 L100.13624,128 C102.825613,128 105,130.174387 105,132.86376 L105,144.13624 C105,146.825613 102.825613,149 100.13624,149 M88.8637602,128.686649 C86.5749319,128.686649 84.7438692,130.517711 84.7438692,132.80654 L84.7438692,144.079019 C84.7438692,146.367847 86.5749319,148.19891 88.8637602,148.19891 L100.13624,148.19891 C102.425068,148.19891 104.256131,146.367847 104.256131,144.079019 L104.256131,132.80654 C104.256131,130.517711 102.425068,128.686649 100.13624,128.686649 L88.8637602,128.686649 Z" id="Shape" fill="#4267C5"></path>
                <path d="M130.13624,149 L118.86376,149 C116.174387,149 114,146.825613 114,144.13624 L114,132.86376 C114,130.174387 116.174387,128 118.86376,128 L130.13624,128 C132.825613,128 135,130.174387 135,132.86376 L135,144.13624 C135,146.825613 132.825613,149 130.13624,149 M118.80654,128.686649 C116.517711,128.686649 114.686649,130.517711 114.686649,132.80654 L114.686649,144.079019 C114.686649,146.367847 116.517711,148.19891 118.80654,148.19891 L130.079019,148.19891 C132.367847,148.19891 134.19891,146.367847 134.19891,144.079019 L134.19891,132.80654 C134.19891,130.517711 132.367847,128.686649 130.079019,128.686649 L118.80654,128.686649 Z" id="Shape" fill="#4267C5"></path>
                <path d="M71.8744166,175 L22.5981678,175 L71.8744166,175 C74.7117094,175 77.0278668,172.853921 77.1436747,170.185822 C77.6648101,158.701396 81.0232384,128.01826 101.579135,94.0290011 C123.930054,57.1976369 126.883155,29.1825994 127,18.1621912 C127.056867,15.3780881 124.682805,13.0580021 121.729705,13.0580021 L23.1772072,13.0580021 L33.3103958,13 L23.1772072,13 C11.3069005,13 1.57903935,22.7443609 1.57903935,34.6348013 L1,153.365199 C1,165.255639 10.7278611,175 22.5981678,175" id="Path" fill="#FFFFFF"></path>
                <path d="M71.8373249,176 L22.6154541,176 C10.1220063,176 0,165.847895 0,153.37531 L0.636240398,34.6827025 C0.636240398,22.2101167 10.7582467,12 23.2516945,12 L33.3737009,12 C33.4893809,12 33.547221,12 33.662901,12.058012 L121.695436,12.058012 C123.430637,12.058012 125.107998,12.7541563 126.264799,13.9724089 C127.4216,15.1326495 128,16.6409622 128,18.2072869 C127.88432,24.1245136 127.074559,33.8705341 123.546317,46.6911921 C119.266155,62.4124514 112.15183,78.4817828 102.434704,94.5511143 C82.0171713,128.256102 78.6624492,158.712416 78.1418888,170.198797 C78.0262088,173.505483 75.249887,176 71.8373249,176 M22.6154541,173.969579 L71.8373249,173.969579 C74.1509263,173.969579 76.0018075,172.28723 76.1174876,170.140785 C76.6380479,158.480368 80.05061,127.61797 100.699503,93.5068978 C108.160868,81.2083481 125.512878,49.3017333 125.975599,18.1492748 C125.975599,17.1050584 125.570718,16.1188539 124.876638,15.3646976 C124.066878,14.5525292 122.910077,14.088433 121.753276,14.088433 L23.1938545,14.088433 C23.0781744,14.088433 23.0203344,14.088433 22.9046543,14.0304209 C11.7415273,14.204457 2.66064166,23.3703573 2.66064166,34.6827025 L2.02440127,153.37531 C2.02440127,164.745667 11.278807,173.969579 22.6154541,173.969579" id="Shape" fill="#4267C5"></path>
                <g id="Group" transform="translate(32.000000, 54.000000)">
                    <path d="M106.598919,29.7656716 C106.598919,29.7656716 83.0140541,55.6238806 53.9416216,55.6238806 C24.8691892,55.6238806 1.28432432,29.7656716 1.28432432,29.7656716 C1.28432432,29.7656716 24.8691892,3.90746269 53.9416216,3.90746269 C83.0140541,3.90746269 106.598919,29.7656716 106.598919,29.7656716" id="Path" fill="#98CDFB"></path>
                    <path d="M53.9416216,62.8641791 C38.8216216,62.8641791 26.5621622,50.7970149 26.5621622,35.9141791 C26.5621622,21.0313433 38.8216216,8.9641791 53.9416216,8.9641791 C69.0616216,8.9641791 81.3210811,21.0313433 81.3210811,35.9141791 C81.3210811,50.7970149 69.0616216,62.8641791 53.9416216,62.8641791 M53.9416216,10.9179104 C39.9891892,10.9179104 28.6054054,22.1231343 28.6054054,35.8567164 C28.6054054,49.5902985 39.9891892,60.7955224 53.9416216,60.7955224 C67.8940541,60.7955224 79.2778378,49.5902985 79.2778378,35.8567164 C79.2778378,22.1231343 67.8940541,10.9179104 53.9416216,10.9179104" id="Shape" fill="#4267C5"></path>
                    <path d="M53.9416216,49.8776119 C46.1189189,49.8776119 39.6972973,43.6141791 39.6972973,35.8567164 C39.6972973,28.1567164 46.0605405,21.8358209 53.9416216,21.8358209 C61.7643243,21.8358209 68.1859459,28.0992537 68.1859459,35.8567164 C68.1859459,43.6141791 61.7643243,49.8776119 53.9416216,49.8776119 M53.9416216,22.6402985 C46.5275676,22.6402985 40.5145946,28.5589552 40.5145946,35.8567164 C40.5145946,43.1544776 46.5275676,49.0731343 53.9416216,49.0731343 C61.3556757,49.0731343 67.3686486,43.1544776 67.3686486,35.8567164 C67.3686486,28.5589552 61.3556757,22.6402985 53.9416216,22.6402985" id="Shape" fill="#4267C5"></path>
                    <path d="M53.9416216,62.7492537 C24.7524324,62.7492537 0.758918919,36.8335821 0.525405405,36.5462687 C0.175135135,36.1440299 0.175135135,35.569403 0.525405405,35.1671642 C0.758918919,34.8798507 24.7524324,8.9641791 53.9416216,8.9641791 C83.1308108,8.9641791 107.124324,34.9373134 107.357838,35.1671642 C107.708108,35.569403 107.708108,36.1440299 107.357838,36.5462687 C107.124324,36.7761194 83.1308108,62.7492537 53.9416216,62.7492537 M2.68540541,35.8567164 C6.65513514,39.8791045 28.2551351,60.7380597 53.9416216,60.7380597 C79.5697297,60.7380597 101.228108,39.9365672 105.197838,35.8567164 C101.228108,31.8343284 79.6281081,10.9753731 53.9416216,10.9753731 C28.2551351,10.9753731 6.65513514,31.7768657 2.68540541,35.8567164" id="Shape" fill="#4267C5"></path>
                    <path d="M92.9967568,76.8276119 C92.3545946,76.8276119 91.6540541,76.5977612 91.187027,76.080597 L18.7978378,4.82686567 C17.8054054,3.85 17.8054054,2.24104478 18.7978378,1.2641791 C19.7902703,0.287313433 21.4248649,0.287313433 22.4172973,1.2641791 L94.8064865,72.5179104 C95.7989189,73.4947761 95.7989189,75.1037313 94.8064865,76.080597 C94.2810811,76.5402985 93.6389189,76.8276119 92.9967568,76.8276119" id="Path" fill="#4267C5"></path>
                </g>
                <path d="M54.3598793,174 L54.3598793,174 C54.154234,174 54,173.827 54,173.596334 C54.6169359,159.468013 55.0796379,155.835016 58.3185514,141.303028 C58.3699627,141.072362 58.575608,140.957029 58.729842,141.014695 C58.9354873,141.072362 59.03831,141.245362 58.9868986,141.476028 C55.7479851,155.950349 55.2852832,159.525679 54.6683472,173.596334 C54.7197586,173.827 54.5655246,174 54.3598793,174" id="Path" fill="#4267C5"></path>
                <path d="M102.355,31 C102.301597,31 102.301597,31 102.248194,31 C102.087985,30.9399834 101.927777,30.6999169 102.034583,30.519867 C104.010487,22.9577718 105.238752,14.375394 105.292155,14.3153774 C105.345557,14.0753109 105.505766,13.9552776 105.719377,14.0152943 C105.932988,14.0753109 106.039794,14.2553608 105.986391,14.4954273 C105.986391,14.5554439 104.704724,23.1978384 102.728819,30.8199501 C102.622014,30.8799667 102.515208,31 102.355,31" id="Path" fill="#4267C5"></path>
                <path d="M24.5,173 C24.2142857,173 24,172.828571 24,172.6 L24,167.4 C24,167.171429 24.2142857,167 24.5,167 C24.7857143,167 25,167.171429 25,167.4 L25,172.657143 C24.9285714,172.828571 24.7142857,173 24.5,173" id="Path" fill="#4267C5"></path>
                <path d="M98.3970105,20 C98.3970105,20 98.3335379,20 98.3335379,20 C98.0796476,19.9418913 97.9527024,19.7675654 98.016175,19.5351307 C98.777846,16.4553718 99.1586815,14.3053514 99.1586815,14.3053514 C99.222154,14.0729167 99.4125718,13.9566994 99.6664621,14.0148081 C99.9203524,14.0729167 100.047298,14.2472427 99.983825,14.4796773 C99.983825,14.4796773 99.6029895,16.6296977 98.8413185,19.7675654 C98.777846,19.8837827 98.5874282,20 98.3970105,20" id="Path" fill="#4267C5"></path>
                <path d="M47.3789137,174 C47.171885,174 47.0683706,173.816327 47.0166134,173.632653 C46.913099,171.061224 47.3271565,165.55102 47.3271565,165.367347 C47.3271565,165.122449 47.4824281,165 47.6894569,165 C47.8964856,165 48,165.244898 48,165.428571 C48,165.489796 47.5859425,171.061224 47.6894569,173.632653 C47.6894569,173.816327 47.5341853,174 47.3789137,174 L47.3789137,174 Z" id="Path" fill="#4267C5"></path>
            </g>
        </g>
    </g>
</svg>